<svg width="54" height="54" viewBox="0 0 54 54" fill="none" xmlns="http://www.w3.org/2000/svg">
<g clip-path="url(#clip0_2301_1445)">
<path d="M1.00053 26.8475C0.91633 41.2067 12.4885 52.9153 26.8476 52.9995C41.2068 53.0837 52.9154 41.5116 52.9996 27.1524C53.0838 12.7933 41.5117 1.08463 27.1525 1.00043C12.7934 0.916231 1.08473 12.4884 1.00053 26.8475Z" fill="white"/>
<g clip-path="url(#clip1_2301_1445)">
<path d="M26.3476 52.9966C19.4029 52.9559 12.8897 50.2132 8.0078 45.2737C3.12593 40.3343 0.459808 33.7894 0.500532 26.8446C0.541256 19.8998 3.28395 13.3866 8.22341 8.50477C13.1629 3.6229 19.7078 0.956779 26.6525 0.997503C33.5973 1.03823 40.1105 3.78092 44.9924 8.72038C49.8742 13.6598 52.5404 20.2048 52.4996 27.1495C52.4589 34.0943 49.7162 40.6075 44.7768 45.4893C39.8373 50.3712 33.2924 53.0373 26.3476 52.9966Z" fill="#BB1600"/>
<path d="M34.9887 51.6254L35.2769 2.46997C38.8931 3.76604 42.2029 5.86969 44.9837 8.68562C49.8711 13.6346 52.5405 20.1916 52.4997 27.1495C52.4589 34.1074 49.7127 40.6326 44.7677 45.524C41.954 48.3071 38.6198 50.3718 34.9887 51.6254Z" fill="#D6C218"/>
<path d="M17.7232 51.5242C14.1071 50.2281 10.7973 48.1244 8.01643 45.3085C3.12908 40.3595 0.459662 33.8025 0.500463 26.8446C0.541264 19.8867 3.2874 13.3615 8.23245 8.47014C11.0461 5.68701 14.3804 3.62232 18.0115 2.36874L17.7232 51.5242Z" fill="#288541"/>
<path opacity="0.13" d="M26.3427 52.9966C19.3994 52.9559 12.8879 50.2135 8.00684 45.2752C3.12577 40.3369 0.459763 33.7941 0.500476 26.8513C0.531542 21.5535 2.13565 16.5075 5.0879 12.2463C3.15006 16.626 2.44642 21.4654 3.09093 26.3336C4.01544 33.3163 7.60475 39.5202 13.1958 43.804C18.788 48.0867 25.713 49.9368 32.695 49.0123C38.7981 48.203 44.3063 45.3612 48.4578 40.9249C47.4166 42.5616 46.1818 44.0935 44.7679 45.4908C39.8292 50.3715 33.286 53.0373 26.3427 52.9966Z" fill="#160204"/>
<path opacity="0.25" d="M49.3134 39.5217C50.6765 34.8963 50.7695 29.9708 49.5333 25.1799C47.7304 18.1967 43.3173 12.3346 37.107 8.67102C30.8956 5.00852 23.6308 3.98402 16.6498 5.7876C12.388 6.88809 8.54448 8.96189 5.36213 11.8249C6.20593 10.6546 7.15426 9.54686 8.20153 8.51146C13.1436 3.62541 19.6913 0.956683 26.6395 0.997426C33.5876 1.03817 40.1036 3.78351 44.988 8.72717C49.8724 13.6708 52.5403 20.2207 52.4995 27.1711C52.4738 31.5613 51.3692 35.7784 49.3134 39.5217Z" fill="white"/>
<path d="M29.7112 32.1412L26.9669 30.2023L24.2361 32.0544C23.9375 32.2569 23.5427 32.2482 23.2564 32.0327C22.9703 31.8172 22.8569 31.4436 22.9755 31.1057L24.0507 28.0404L21.3979 25.978C21.2608 25.8713 21.1649 25.728 21.1167 25.5704C21.0661 25.4047 21.068 25.2234 21.13 25.0517C21.2509 24.7166 21.5738 24.4934 21.9325 24.4972L25.2883 24.5317L26.4588 21.4918C26.5866 21.1598 26.9129 20.9438 27.2708 20.9539C27.6286 20.9641 27.9386 21.1985 28.042 21.5368L28.9934 24.6496L32.1585 24.7297C32.5138 24.7388 32.823 24.9689 32.9296 25.3036L32.9324 25.3128C33.034 25.6452 32.9145 26.0069 32.6322 26.2176L30.0597 28.1384L31.002 31.2211C31.1056 31.5603 30.9788 31.9287 30.6866 32.137C30.3945 32.3452 30.0022 32.3468 29.7112 32.1412Z" fill="#FEE833"/>
</g>
</g>
<defs>
<clipPath id="clip0_2301_1445">
<rect x="53.1521" y="1.15289" width="52" height="52" rx="26" transform="rotate(90.336 53.1521 1.15289)" fill="white"/>
</clipPath>
<clipPath id="clip1_2301_1445">
<rect width="52" height="52" fill="white" transform="translate(52.6521 1.14996) rotate(90.336)"/>
</clipPath>
</defs>
</svg>
