<svg width="52" height="52" viewBox="0 0 52 52" fill="none" xmlns="http://www.w3.org/2000/svg">
<g clip-path="url(#clip0_4199_29)">
<path d="M52 26C52 32.9449 49.2955 39.474 44.3848 44.3848C39.474 49.2955 32.9449 52 26 52C19.0551 52 12.526 49.2955 7.6152 44.3848C2.70445 39.474 0 32.9449 0 26C0 19.0551 2.70445 12.526 7.6152 7.6152C12.526 2.70445 19.0551 0 26 0C32.9449 0 39.474 2.70445 44.3848 7.6152C49.2955 12.526 52 19.0551 52 26Z" fill="#EFEFEF"/>
<path d="M14.854 2.53906V49.4609C12.201 48.2019 9.75441 46.4847 7.6157 44.35C2.70484 39.4483 0 32.9318 0 26C0 19.0682 2.70484 12.5517 7.6157 7.65004C9.75441 5.51533 12.201 3.79808 14.854 2.53906ZM44.3843 7.65004C42.2456 5.51533 39.799 3.79808 37.146 2.53906V49.4609C39.799 48.2019 42.2456 46.4847 44.3843 44.35C49.2952 39.4483 52 32.9318 52 26C52 19.0682 49.2952 12.5517 44.3843 7.65004ZM33.5396 26.1218L31.866 25.4773V23.6879C31.866 23.5735 31.8067 23.4672 31.7092 23.407C31.6116 23.3466 31.4899 23.3412 31.3874 23.3921L28.5576 24.7984L29.8944 22.0021C29.9434 21.8997 29.9363 21.7795 29.8756 21.6834C29.815 21.5875 29.7093 21.5293 29.5956 21.5293H28.0235L26.2631 18.8555C26.2018 18.7625 26.0979 18.7065 25.9864 18.7065H25.9853C25.8734 18.7068 25.7694 18.7637 25.7085 18.8573L23.9748 21.5293H22.4041C22.2905 21.5293 22.1848 21.5875 22.1242 21.6834C22.0635 21.7794 22.0564 21.8997 22.1054 22.0021L23.4422 24.7984L20.6124 23.3921C20.51 23.3412 20.3882 23.3466 20.2906 23.407C20.193 23.4672 20.1338 23.5735 20.1338 23.6879V25.4773L18.4602 26.1218C18.3384 26.1688 18.2555 26.2828 18.2488 26.413C18.2419 26.5433 18.3126 26.6652 18.4289 26.7245L21.9202 28.5038L21.0919 29.9785C21.0345 30.0809 21.0356 30.2059 21.095 30.3071C21.1545 30.4083 21.2631 30.4705 21.3807 30.4705H24.7259V32.9628C24.7259 33.1453 24.8741 33.2933 25.057 33.2933H26.9426C27.1254 33.2933 27.2736 33.1453 27.2736 32.9628V30.4705H30.5651C30.6813 30.4705 30.7889 30.4097 30.8487 30.3104C30.9087 30.2111 30.912 30.0877 30.8576 29.9852L30.0724 28.5074L33.5707 26.7244C33.687 26.6651 33.7575 26.5432 33.7508 26.4128C33.7443 26.2828 33.6614 26.1688 33.5396 26.1218Z" fill="#D90028"/>
<path opacity="0.13" d="M52 26.0049C52 32.9483 49.2959 39.4758 44.3863 44.3857C39.4767 49.2957 32.9497 52 26.0067 52C20.7088 52 15.6535 50.4255 11.375 47.4983C15.7661 49.4104 20.6095 50.0857 25.4738 49.4126C32.451 48.4472 38.6338 44.8216 42.8847 39.2055C47.1345 33.5883 48.9439 26.6526 47.9785 19.6761C47.1334 13.5778 44.2594 8.08639 39.7988 3.96094C41.4416 4.99258 42.9807 6.21841 44.3863 7.62408C49.2959 12.534 52 19.0615 52 26.0049Z" fill="#160204"/>
<path opacity="0.25" d="M38.3906 3.11362C33.7573 1.77763 28.8314 1.7136 24.0478 2.97781C17.0753 4.8217 11.2392 9.26909 7.61208 15.5008C3.98607 21.7335 3.00419 29.0042 4.84867 35.9745C5.97413 40.2297 8.07044 44.061 10.952 47.2266C9.77686 46.3896 8.66354 45.4478 7.62202 44.4066C2.70708 39.4933 0 32.9613 0 26.0131C0 19.0649 2.70708 12.5329 7.62202 7.61954C12.537 2.7062 19.0711 0 26.0216 0C30.4119 0 34.6354 1.07983 38.3906 3.11362Z" fill="white"/>
</g>
<defs>
<clipPath id="clip0_4199_29">
<rect width="52" height="52" fill="white"/>
</clipPath>
</defs>
</svg>
