<svg width="52" height="52" viewBox="0 0 52 52" fill="none" xmlns="http://www.w3.org/2000/svg">
<path d="M26 1.625C16.0062 1.625 7.39375 7.6375 3.65625 16.25H48.3438C44.6063 7.6375 35.9938 1.625 26 1.625Z" fill="#141414"/>
<path d="M26 50.375C35.9938 50.375 44.6063 44.3625 48.3438 35.75H3.65625C7.39375 44.3625 16.0062 50.375 26 50.375Z" fill="#006600"/>
<path d="M50.375 26C50.375 23.725 50.05 21.5312 49.4813 19.5H2.51875C1.95 21.5312 1.625 23.725 1.625 26C1.625 28.275 1.95 30.4688 2.51875 32.5H49.4813C50.05 30.4688 50.375 28.275 50.375 26Z" fill="#BB1600"/>
<path d="M3.0063 34.125C3.1688 34.6937 3.41255 35.1813 3.6563 35.75H48.3438C48.5876 35.1813 48.8313 34.6937 48.9938 34.125C49.1563 33.5563 49.3188 33.0687 49.4813 32.5H2.5188C2.6813 33.0687 2.8438 33.5563 3.0063 34.125Z" fill="white"/>
<path d="M48.9938 17.875C48.8313 17.3063 48.5876 16.8187 48.3438 16.25H3.6563C3.41255 16.8187 3.1688 17.3063 3.0063 17.875C2.8438 18.4437 2.6813 18.9313 2.5188 19.5H49.4813C49.3188 18.9313 49.1563 18.4437 48.9938 17.875Z" fill="white"/>
<path d="M16.4126 42.4938L16.9813 42.8188L32.6626 15.6813C33.5563 15.4375 34.0438 14.5438 34.6126 13.7313C34.9376 13.1625 36.3188 10.8063 36.8876 7.8C34.5313 9.83125 33.2313 12.1063 32.9063 12.7563C32.4188 13.65 31.9313 14.4625 32.1751 15.4375L16.4126 42.4938Z" fill="white"/>
<path d="M35.5875 42.4938L35.0188 42.8188L19.3375 15.6813C18.4438 15.4375 17.9563 14.5438 17.3875 13.7313C17.0625 13.1625 15.6813 10.8063 15.1125 7.8C17.4688 9.83125 18.7688 12.1063 19.0938 12.7563C19.5813 13.65 20.0688 14.4625 19.825 15.4375L35.5875 42.4938Z" fill="white"/>
<path d="M32.5 26C32.5 34.9375 26 42.25 26 42.25C26 42.25 19.5 34.9375 19.5 26C19.5 17.0625 26 9.75 26 9.75C26 9.75 32.5 17.0625 32.5 26Z" fill="#BB1600"/>
<path d="M21.2063 32.5C22.5875 31.1187 23.5625 28.7625 23.5625 26C23.5625 23.2375 22.6688 20.8813 21.2063 19.5C20.6375 21.3687 20.3125 23.6437 20.3125 26C20.3125 28.3563 20.6375 30.6313 21.2063 32.5Z" fill="#141414"/>
<path d="M30.7938 19.5C29.4125 20.8813 28.4375 23.2375 28.4375 26C28.4375 28.7625 29.3313 31.1187 30.7938 32.5C31.3625 30.6313 31.6875 28.3563 31.6875 26C31.6875 23.6437 31.3625 21.3687 30.7938 19.5Z" fill="#141414"/>
<path d="M26 27.95C26.7179 27.95 27.3 27.077 27.3 26C27.3 24.923 26.7179 24.05 26 24.05C25.282 24.05 24.7 24.923 24.7 26C24.7 27.077 25.282 27.95 26 27.95Z" fill="white"/>
<path d="M25.5125 10.3188C25.025 11.7 24.7 14.3 24.7 17.1438C24.7 20.0688 25.025 22.5875 25.5125 23.9688C25.675 21.9375 25.8375 19.6625 25.8375 17.1438C25.8375 14.7063 25.7562 12.35 25.5125 10.3188Z" fill="white"/>
<path d="M26.4876 10.3188C26.9751 11.7 27.3001 14.3 27.3001 17.1438C27.3001 20.0688 26.9751 22.5875 26.4876 23.9688C26.3251 21.9375 26.1626 19.6625 26.1626 17.1438C26.1626 14.7063 26.2438 12.35 26.4876 10.3188Z" fill="white"/>
<path d="M25.5125 27.95C25.025 29.3312 24.7 31.9312 24.7 34.775C24.7 37.7 25.025 40.2187 25.5125 41.6C25.675 39.5687 25.8375 37.2937 25.8375 34.775C25.8375 32.3375 25.7562 29.9812 25.5125 27.95Z" fill="white"/>
<path d="M26.4876 27.95C26.9751 29.3312 27.3001 31.9312 27.3001 34.775C27.3001 37.7 26.9751 40.2187 26.4876 41.6C26.3251 39.5687 26.1626 37.2937 26.1626 34.775C26.1626 32.3375 26.2438 29.9812 26.4876 27.95Z" fill="white"/>
<path opacity="0.13" d="M50.5 26.3483C50.5 32.7576 48.0039 38.7829 43.4719 43.3152C38.94 47.8474 32.9151 50.3438 26.5062 50.3438C21.6158 50.3438 16.9494 48.8904 13 46.1883C17.0533 47.9534 21.5241 48.5767 26.0143 47.9554C32.4547 47.0642 38.1619 43.7175 42.0859 38.5334C46.0088 33.3483 47.679 26.9461 46.7879 20.5063C46.0078 14.8771 43.3548 9.80811 39.2374 6C40.7538 6.95228 42.1745 8.08382 43.4719 9.38137C48.0039 13.9136 50.5 19.939 50.5 26.3483Z" fill="#160204"/>
<path opacity="0.25" d="M36.4375 4.87411C32.1606 3.64089 27.6136 3.58178 23.198 4.74875C16.7618 6.4508 11.3746 10.5561 8.02653 16.3084C4.67945 22.0617 3.77309 28.7731 5.47569 35.2072C6.51458 39.1352 8.44963 42.6717 11.1096 45.5937C10.0248 44.8212 8.99712 43.9518 8.03571 42.9907C3.49884 38.4554 1 32.4258 1 26.0121C1 19.5983 3.49884 13.5688 8.03571 9.03342C12.5726 4.49803 18.6041 2 25.0199 2C29.0725 2 32.9711 2.99677 36.4375 4.87411Z" fill="white"/>
</svg>
