<svg width="52" height="52" viewBox="0 0 52 52" fill="none" xmlns="http://www.w3.org/2000/svg">
<g clip-path="url(#clip0_4199_36)">
<path d="M26 52C40.3594 52 52 40.3594 52 26C52 11.6406 40.3594 0 26 0C11.6406 0 0 11.6406 0 26C0 40.3594 11.6406 52 26 52Z" fill="white"/>
<g clip-path="url(#clip1_4199_36)">
<path d="M52 26.5C52 33.4449 49.2955 39.974 44.3848 44.8848C39.474 49.7955 32.9449 52.5 26 52.5C19.0551 52.5 12.526 49.7955 7.6152 44.8848C2.70445 39.974 0 33.4449 0 26.5C0 19.5551 2.70445 13.026 7.6152 8.1152C12.526 3.20445 19.0551 0.5 26 0.5C32.9449 0.5 39.474 3.20445 44.3848 8.1152C49.2955 13.026 52 19.5551 52 26.5Z" fill="#EFEFEF"/>
<path d="M52 26.5C52 33.4509 49.295 39.9853 44.3837 44.9005C41.7162 47.5702 38.5708 49.5893 35.1406 50.875V2.125C38.5708 3.41069 41.7162 5.42979 44.3837 8.09946C49.295 13.0147 52 19.5491 52 26.5Z" fill="#187F44"/>
<path d="M16.8594 2.125V50.875C13.4292 49.5893 10.2838 47.5702 7.6163 44.9005C2.70505 39.9853 0 33.4509 0 26.5C0 19.5491 2.70505 13.0147 7.6163 8.09946C10.2838 5.42979 13.4292 3.41069 16.8594 2.125Z" fill="#187F44"/>
<path opacity="0.13" d="M52 26.5049C52 33.4483 49.2959 39.9758 44.3863 44.8857C39.4767 49.7957 32.9497 52.5 26.0067 52.5C20.7088 52.5 15.6535 50.9255 11.375 47.9983C15.7661 49.9104 20.6095 50.5857 25.4738 49.9126C32.451 48.9472 38.6338 45.3216 42.8847 39.7055C47.1345 34.0883 48.9439 27.1526 47.9785 20.1761C47.1334 14.0778 44.2594 8.58639 39.7988 4.46094C41.4416 5.49258 42.9807 6.71841 44.3863 8.12408C49.2959 13.034 52 19.5615 52 26.5049Z" fill="#160204"/>
<path opacity="0.25" d="M38.3906 3.61362C33.7573 2.27763 28.8314 2.2136 24.0478 3.47781C17.0753 5.3217 11.2392 9.76909 7.61208 16.0008C3.98607 22.2335 3.00419 29.5042 4.84867 36.4745C5.97413 40.7297 8.07044 44.561 10.952 47.7266C9.77686 46.8896 8.66354 45.9478 7.62202 44.9066C2.70708 39.9933 0 33.4613 0 26.5131C0 19.5649 2.70708 13.0329 7.62202 8.11954C12.537 3.2062 19.0711 0.5 26.0216 0.5C30.4119 0.5 34.6354 1.57983 38.3906 3.61362Z" fill="white"/>
</g>
</g>
<defs>
<clipPath id="clip0_4199_36">
<rect width="52" height="52" rx="26" fill="white"/>
</clipPath>
<clipPath id="clip1_4199_36">
<rect width="52" height="52" fill="white" transform="translate(0 0.5)"/>
</clipPath>
</defs>
</svg>
