<svg width="60" height="60" viewBox="0 0 60 60" fill="none" xmlns="http://www.w3.org/2000/svg">
<path d="M15.9374 5.62505C5.90611 11.4376 0.843612 22.4063 2.06236 33.0938L46.6874 7.4063C37.9686 0.937551 25.9686 -0.0936992 15.9374 5.62505Z" fill="#1EB53A"/>
<path d="M13.3125 52.5937C22.0313 59.0625 34.125 60.0938 44.0625 54.2813C54.0937 48.5625 59.1562 37.5938 57.9375 26.8125L13.3125 52.5937Z" fill="#00A3DD"/>
<path d="M54.375 15.9375C53.0625 13.6875 51.4687 11.7187 49.6875 9.9375L2.8125 37.0312C3.46875 39.4687 4.40625 41.8125 5.625 44.0625C6.9375 46.3125 8.53125 48.2813 10.3125 50.0625L57.1875 22.9687C56.625 20.5312 55.6875 18.1875 54.375 15.9375Z" fill="#141414"/>
<path d="M57.6562 24.8438C57.5625 24.1875 57.375 23.5313 57.1875 22.9688L10.3125 50.0625C10.7812 50.5313 11.25 51 11.7188 51.375C12.1875 51.8437 12.75 52.2187 13.3125 52.5937L57.9375 26.8125L57.6562 24.8438Z" fill="#FBD035"/>
<path d="M48.2812 8.625C47.8125 8.15625 47.25 7.78125 46.6875 7.40625L2.0625 33.0937L2.34375 35.0625C2.4375 35.7188 2.625 36.375 2.8125 36.9375L49.6875 9.9375C49.2187 9.46875 48.75 9 48.2812 8.625Z" fill="#FBD035"/>
</svg>
