<svg width="160" height="46" viewBox="0 0 160 46" fill="none" xmlns="http://www.w3.org/2000/svg">
<g clip-path="url(#clip0_417_1175)">
<path d="M26.5746 13.0115C30.1692 13.0115 33.0831 10.1146 33.0831 6.54113C33.0831 2.96766 30.1692 0.0708008 26.5746 0.0708008C22.9801 0.0708008 20.0662 2.96766 20.0662 6.54113C20.0662 10.1146 22.9801 13.0115 26.5746 13.0115Z" fill="#F16522"/>
<path d="M35.7933 41.4773C39.3878 41.4773 42.3017 38.5804 42.3017 35.007C42.3017 31.4335 39.3878 28.5366 35.7933 28.5366C32.1987 28.5366 29.2848 31.4335 29.2848 35.007C29.2848 38.5804 32.1987 41.4773 35.7933 41.4773Z" fill="#F16522"/>
<path d="M6.50847 35.4402C10.103 35.4402 13.0169 32.5433 13.0169 28.9698C13.0169 25.3964 10.103 22.4995 6.50847 22.4995C2.91394 22.4995 0 25.3964 0 28.9698C0 32.5433 2.91394 35.4402 6.50847 35.4402Z" fill="#F16522"/>
<path d="M7.37626 20.1273C9.71271 20.1273 11.6068 18.2443 11.6068 15.9215C11.6068 13.5988 9.71271 11.7158 7.37626 11.7158C5.03982 11.7158 3.14575 13.5988 3.14575 15.9215C3.14575 18.2443 5.03982 20.1273 7.37626 20.1273Z" fill="#F6921E"/>
<path d="M37.6372 18.4036C39.9737 18.4036 41.8678 16.5207 41.8678 14.1979C41.8678 11.8752 39.9737 9.99219 37.6372 9.99219C35.3008 9.99219 33.4067 11.8752 33.4067 14.1979C33.4067 16.5207 35.3008 18.4036 37.6372 18.4036Z" fill="#F6921E"/>
<path d="M23.7542 44.7127C26.0906 44.7127 27.9847 42.8297 27.9847 40.507C27.9847 38.1842 26.0906 36.3013 23.7542 36.3013C21.4177 36.3013 19.5237 38.1842 19.5237 40.507C19.5237 42.8297 21.4177 44.7127 23.7542 44.7127Z" fill="#F6921E"/>
<path d="M13.7745 41.046C15.3921 41.046 16.7033 39.7424 16.7033 38.1343C16.7033 36.5263 15.3921 35.2227 13.7745 35.2227C12.157 35.2227 10.8457 36.5263 10.8457 38.1343C10.8457 39.7424 12.157 41.046 13.7745 41.046Z" fill="#FFC10E"/>
<path d="M40.4576 26.5972C42.0752 26.5972 43.3864 25.2936 43.3864 23.6856C43.3864 22.0775 42.0752 20.7739 40.4576 20.7739C38.8401 20.7739 37.5288 22.0775 37.5288 23.6856C37.5288 25.2936 38.8401 26.5972 40.4576 26.5972Z" fill="#FFC10E"/>
<path d="M14.4254 11.5015C16.0429 11.5015 17.3542 10.1979 17.3542 8.58987C17.3542 6.98181 16.0429 5.67822 14.4254 5.67822C12.8079 5.67822 11.4966 6.98181 11.4966 8.58987C11.4966 10.1979 12.8079 11.5015 14.4254 11.5015Z" fill="#FFC10E"/>
<path d="M63.6389 45.3263V12.6174H67.1559V16.7507C67.9898 15.1645 69.0915 13.9468 70.4609 13.0976C71.8329 12.2478 73.4208 11.8058 75.0372 11.8238C78.1525 11.8238 80.6547 12.9055 82.544 15.069C84.4333 17.2326 85.3773 20.101 85.3762 23.6742C85.3762 27.3116 84.4519 30.2002 82.6033 32.3401C80.7547 34.48 78.2813 35.5511 75.183 35.5534C73.4033 35.5534 71.853 35.1405 70.5321 34.3149C69.2112 33.4893 68.1333 32.2592 67.2982 30.6248V45.3263H63.6389ZM67.1982 23.6675C67.1982 26.1388 67.8672 28.1181 69.205 29.6054C70.5429 31.0927 72.3152 31.8397 74.522 31.8464C76.6756 31.8464 78.3706 31.1651 79.6067 29.8025C80.8429 28.4399 81.4604 26.5488 81.4593 24.1292C81.4593 21.4209 80.8417 19.2978 79.6067 17.76C78.3717 16.2221 76.6525 15.4527 74.4491 15.4515C72.1982 15.4515 70.4276 16.1817 69.1372 17.642C67.8468 19.1023 67.2022 21.1131 67.2033 23.6742L67.1982 23.6675Z" fill="#58595B"/>
<path d="M109.217 12.617V34.6111H105.629V30.621C104.763 32.2229 103.658 33.445 102.312 34.2875C100.96 35.1312 99.3926 35.5704 97.7966 35.553C94.6961 35.553 92.1978 34.4673 90.3017 32.2959C88.4057 30.1245 87.4576 27.2505 87.4576 23.6738C87.4576 20.0523 88.3785 17.1715 90.2204 15.0316C92.0622 12.8916 94.5249 11.8245 97.6085 11.8301C99.4164 11.8301 100.986 12.2429 102.317 13.0686C103.648 13.8942 104.721 15.1237 105.537 16.757V12.617H109.217ZM105.629 23.8187C105.629 21.3351 104.964 19.3356 103.634 17.8202C102.304 16.3049 100.569 15.5477 98.4288 15.5489C96.2107 15.5489 94.4797 16.2459 93.2356 17.6399C91.9915 19.034 91.3701 20.9812 91.3712 23.4817C91.3712 26.1418 91.9966 28.193 93.2475 29.6353C94.4983 31.0776 96.2729 31.7988 98.5712 31.7988C100.775 31.7988 102.502 31.0979 103.753 29.696C105.003 28.2941 105.629 26.335 105.629 23.8187Z" fill="#58595B"/>
<path d="M134.541 12.6171V34.227C134.541 36.6141 134.384 38.3131 134.069 39.3241C133.755 40.3308 133.224 41.2572 132.512 42.0386C131.499 43.1487 130.232 43.9986 128.817 44.5155C127.362 45.0558 125.69 45.326 123.802 45.326C120.525 45.326 117.971 44.565 116.141 43.0429C114.31 41.5208 113.354 39.3651 113.273 36.5759H117.427V36.864C117.427 38.5153 117.986 39.7897 119.103 40.6872C120.221 41.5848 121.803 42.0341 123.849 42.0352C125.328 42.0352 126.592 41.7909 127.639 41.3023C128.648 40.8464 129.486 40.085 130.034 39.127C130.378 38.5431 130.618 37.9038 130.741 37.2381C130.883 36.5169 130.954 35.4835 130.953 34.1377V30.4308C130.119 32.0034 129.025 33.2093 127.673 34.0484C126.307 34.8929 124.726 35.3308 123.117 35.3105C120.015 35.3105 117.517 34.2366 115.622 32.0888C113.727 29.941 112.779 27.0883 112.778 23.5308C112.778 19.9361 113.698 17.088 115.539 14.9862C117.38 12.8845 119.842 11.8308 122.927 11.8252C124.721 11.8252 126.295 12.238 127.649 13.0637C129.003 13.8893 130.073 15.103 130.859 16.7049V12.6171H134.541ZM130.953 23.674C130.953 21.2027 130.292 19.2155 128.971 17.7125C127.65 16.2095 125.911 15.4563 123.754 15.453C121.535 15.453 119.804 16.15 118.561 17.544C117.318 18.9381 116.697 20.8853 116.697 23.3859C116.697 26.047 117.322 28.0982 118.573 29.5394C119.824 30.9806 121.599 31.7018 123.898 31.7029C126.102 31.7029 127.829 30.9941 129.08 29.5765C130.33 28.1589 130.955 26.1914 130.953 23.674Z" fill="#58595B"/>
<path d="M159.959 12.617V34.6111H156.371V30.621C155.507 32.224 154.4 33.4462 153.051 34.2875C151.699 35.1312 150.132 35.5704 148.536 35.553C145.434 35.553 142.936 34.4673 141.041 32.2959C139.146 30.1245 138.198 27.2505 138.197 23.6738C138.197 20.0523 139.117 17.1715 140.958 15.0316C142.798 12.8916 145.261 11.8245 148.346 11.8301C150.154 11.8301 151.724 12.2429 153.056 13.0686C154.388 13.8942 155.462 15.1237 156.276 16.757V12.617H159.959ZM156.371 23.8187C156.371 21.3351 155.707 19.3356 154.378 17.8202C153.049 16.3049 151.314 15.5477 149.173 15.5489C146.954 15.5489 145.223 16.2459 143.98 17.6399C142.737 19.034 142.115 20.9812 142.115 23.4817C142.115 26.1418 142.741 28.193 143.992 29.6353C145.242 31.0776 147.019 31.7988 149.322 31.7988C151.525 31.7988 153.253 31.0979 154.503 29.696C155.754 28.2941 156.377 26.335 156.371 23.8187Z" fill="#58595B"/>
</g>
<defs>
<clipPath id="clip0_417_1175">
<rect width="160" height="46" fill="white"/>
</clipPath>
</defs>
</svg>
