<svg width="160" height="44" viewBox="0 0 160 44" fill="none" xmlns="http://www.w3.org/2000/svg">
<path d="M31.3613 0.102143L6.02842 0H5.99447C4.40289 0 2.91263 0.611548 1.76105 1.76681C0.609737 2.88802 0 4.41702 0 6.01386V37.9861C0 39.583 0.609737 41.112 1.76105 42.2332C2.87895 43.3544 4.40289 44 5.99474 44H6.02868L31.3616 43.9319V42.4032C31.3616 34.5544 28.3474 27.3855 23.4026 22.0511C28.5505 16.4788 31.3616 9.30941 31.3616 1.66493V0.101881L31.3613 0.102143ZM12.7684 14.6098C9.75421 13.3867 6.50263 12.6052 3.08211 12.4352V12.3671C7.82368 11.6542 11.5826 7.84902 12.2263 3.09205L18.5934 3.1261C18.2208 7.57717 16.1547 11.6542 12.7682 14.6104L12.7684 14.6098ZM3.92895 3.94114C4.47079 3.39743 5.21579 3.09152 5.99474 3.09152H9.07684C8.50105 6.18357 6.09632 8.62976 3.04842 9.27536V6.01386C3.08211 5.23233 3.38711 4.4846 3.92895 3.94114ZM3.08211 31.6323V25.2445C11.3121 25.992 17.8821 32.6176 18.5937 40.8739L12.2266 40.908C11.5492 36.1172 7.82368 32.346 3.08211 31.6323ZM6.02868 40.908C5.24974 40.908 4.50474 40.6021 3.96289 40.0583C3.42079 39.5149 3.11605 38.7671 3.11605 37.9859V34.7582C6.16421 35.4035 8.56868 37.8159 9.14447 40.9077H6.02868V40.908ZM28.2458 40.8399L21.6416 40.8739C20.8966 30.9189 12.9716 22.9342 3.04842 22.1527V15.5273C16.6292 16.3088 27.5008 27.2494 28.2458 40.8404V40.8399ZM21.2011 19.8765C19.5282 18.4043 17.7 17.117 15.7484 16.037C19.2029 12.6055 21.3026 8.05252 21.6753 3.12583L28.2795 3.15988C27.9068 9.41155 25.4347 15.2557 21.2011 19.8765Z" fill="url(#paint0_linear_417_1214)"/>
<path d="M69.542 16.3463C68.2041 15.6308 66.6946 15.29 65.0133 15.29C63.2981 15.29 61.7541 15.6648 60.416 16.4144C59.0781 17.1637 58.0489 18.1857 57.3283 19.4803C56.6078 20.7748 56.2646 22.2397 56.2646 23.8748C56.2646 25.0669 56.4707 26.2253 56.9168 27.2473C57.3283 28.3033 57.9115 29.1891 58.6662 29.9727C59.4541 30.7547 60.4019 31.3588 61.4452 31.7439C62.597 32.174 63.8175 32.3934 65.0478 32.3914C66.7289 32.3914 68.2383 32.0506 69.5765 31.3351C70.9144 30.6198 71.9436 29.5979 72.6986 28.3033C73.4533 27.0087 73.8307 25.5098 73.8307 23.8748C73.8307 22.2056 73.4533 20.7068 72.6986 19.4119C71.8749 18.0835 70.846 17.0616 69.542 16.3463ZM68.4441 27.4856C67.5178 28.4395 66.3515 28.9164 64.9791 28.9164C63.5725 28.9164 62.406 28.4398 61.4796 27.4516C60.5533 26.4637 60.1073 25.2715 60.1073 23.8407C60.1073 22.3759 60.5533 21.1494 61.4454 20.1955C62.3375 19.2076 63.5381 18.7307 64.9791 18.7307C66.3857 18.7307 67.5178 19.2076 68.4441 20.1615C69.3704 21.1153 69.8165 22.3418 69.8165 23.8407C69.8507 25.3055 69.4049 26.5318 68.4441 27.4856Z" fill="#102649"/>
<path fill-rule="evenodd" clip-rule="evenodd" d="M85.5985 15.29H85.1182C84.089 15.29 83.1627 15.5284 82.2364 16.0056C81.31 16.4822 80.5553 17.1637 79.9035 18.0495H79.8693V15.5627H76.0264V32.1528H79.8687V24.2836C79.8687 23.3638 80.0403 22.5802 80.3835 21.8649C80.7266 21.1494 81.2756 20.5703 81.9616 20.1615C82.6477 19.7529 83.4711 19.5146 84.4319 19.5146C84.7748 19.5146 85.1524 19.5146 85.5982 19.5486L85.5985 15.29Z" fill="#102649"/>
<path d="M98.8758 17.5043H98.8074C97.5379 16.0054 95.8224 15.2559 93.6266 15.2559C92.4945 15.2559 91.4311 15.4601 90.4361 15.9033C89.4411 16.3459 88.5834 16.9252 87.8629 17.6746C87.1424 18.4241 86.5934 19.3439 86.1818 20.3999C85.77 21.49 85.5642 22.6141 85.5642 23.8406C85.5642 24.8625 85.7013 25.7823 85.9416 26.7021C86.216 27.5879 86.5934 28.3713 87.0737 29.0527C87.5542 29.734 88.1374 30.313 88.7892 30.824C89.441 31.335 90.1958 31.7098 91.0192 31.9484C91.8426 32.1867 92.7347 32.3229 93.6266 32.3229C95.891 32.3229 97.675 31.5055 98.9445 29.8361H98.9787V32.0505H102.65V15.4601H98.8071V17.504L98.8758 17.5043ZM97.6408 27.5195C96.7145 28.4394 95.5824 28.9163 94.2784 28.9163C92.8718 28.9163 91.7055 28.4396 90.8134 27.5198C89.9213 26.6 89.4753 25.3735 89.4753 23.9087C89.4753 23.1253 89.6126 22.4098 89.8526 21.7626C90.0929 21.1152 90.436 20.5702 90.8821 20.1273C91.3231 19.6877 91.848 19.3403 92.4258 19.1053C93.0092 18.867 93.6266 18.7308 94.3126 18.7308C95.6853 18.7308 96.8174 19.2415 97.7095 20.2297C98.6016 21.2176 99.0474 22.4438 99.0474 23.9087C99.0474 25.3735 98.5671 26.5997 97.6408 27.5195ZM122.034 19.412C121.691 18.7649 121.279 18.2196 120.799 17.7086C120.319 17.1979 119.77 16.7547 119.186 16.3802C118.603 16.0054 117.951 15.7328 117.231 15.5626C116.51 15.3923 115.79 15.2561 115.035 15.2561C112.805 15.2561 111.021 16.0052 109.717 17.5043H109.649V15.4945H105.806V38.7956H109.649V30.0404H109.683C110.952 31.5733 112.702 32.3567 114.967 32.3567C115.893 32.3567 116.751 32.2205 117.574 31.9821C118.397 31.7098 119.152 31.3347 119.804 30.8578C120.456 30.3811 121.039 29.7677 121.519 29.0865C122 28.4051 122.377 27.6217 122.652 26.7359C122.926 25.8502 123.029 24.8963 123.029 23.8744C123.029 23.0567 122.926 22.2733 122.754 21.4897C122.583 20.7064 122.377 20.0589 122.034 19.4118L122.034 19.412ZM117.848 27.5198C116.956 28.4394 115.79 28.9163 114.383 28.9163C113.011 28.9163 111.844 28.4396 110.918 27.5198C109.992 26.6 109.512 25.3735 109.512 23.9087C109.512 22.4098 109.957 21.1836 110.884 20.1954C111.776 19.2075 112.977 18.7305 114.383 18.7305C115.756 18.7305 116.888 19.2075 117.814 20.1613C118.74 21.1152 119.186 22.3757 119.186 23.9087C119.186 25.3735 118.741 26.6 117.848 27.5198ZM137.576 17.5043C136.306 16.0054 134.591 15.2559 132.395 15.2559C131.263 15.2559 130.199 15.4601 129.204 15.9033C128.21 16.3459 127.352 16.9252 126.631 17.6746C125.911 18.4241 125.362 19.3439 124.95 20.3999C124.538 21.49 124.333 22.6141 124.333 23.8406C124.333 24.8625 124.47 25.7823 124.71 26.7021C124.984 27.5879 125.362 28.3713 125.842 29.0527C126.323 29.734 126.906 30.313 127.558 30.824C128.209 31.335 128.964 31.7098 129.788 31.9484C130.611 32.1867 131.503 32.3229 132.395 32.3229C134.659 32.3229 136.443 31.5055 137.713 29.8361H137.747V32.0505H141.418V15.4601H137.576V17.5043ZM136.409 27.5195C135.483 28.4394 134.351 28.9163 133.047 28.9163C131.64 28.9163 130.474 28.4396 129.582 27.5198C128.69 26.6 128.244 25.3735 128.244 23.9087C128.244 23.1253 128.381 22.4098 128.621 21.7626C128.861 21.1152 129.204 20.5702 129.65 20.1273C130.091 19.6877 130.616 19.3402 131.194 19.1053C131.778 18.867 132.395 18.7308 133.081 18.7308C134.454 18.7308 135.586 19.2415 136.478 20.2297C137.37 21.2176 137.816 22.4438 137.816 23.9087C137.816 25.3735 137.336 26.5997 136.409 27.5195Z" fill="#102649"/>
<path fill-rule="evenodd" clip-rule="evenodd" d="M155.759 15.5282L151.436 26.7021H151.402L146.805 15.5285H142.756L149.549 31.1988L146.53 38.8296H150.579L159.773 15.5285L155.759 15.5282ZM56.7795 15.5282H52.2506L45.4237 23.0913H45.3553V8.20459H41.5469V32.1189H45.355V28.2353L48.1682 25.1354H48.2369L52.5598 32.1189H56.8827L50.7758 22.2398L56.7795 15.5282Z" fill="#102649"/>
<defs>
<linearGradient id="paint0_linear_417_1214" x1="2832.8" y1="4548.68" x2="422.994" y2="2107.89" gradientUnits="userSpaceOnUse">
<stop stop-color="#5C33F3"/>
<stop offset="1" stop-color="#2CADFF"/>
</linearGradient>
</defs>
</svg>
