<svg width="20" height="20" viewBox="0 0 20 20" fill="none" xmlns="http://www.w3.org/2000/svg">
<g clip-path="url(#clip0_30_5194)">
<path d="M15.8984 20H4.10156C1.83996 20 0 18.16 0 15.8984V4.10156C0 1.83996 1.83996 0 4.10156 0H15.8984C18.16 0 20 1.83996 20 4.10156V15.8984C20 18.16 18.16 20 15.8984 20Z" fill="#00C3FF"/>
<path d="M15.8984 0H10V20H15.8984C18.16 20 20 18.16 20 15.8984V4.10156C20 1.83996 18.16 0 15.8984 0Z" fill="#00AAF0"/>
<path d="M6.15817 15.4107C5.97751 15.7237 5.64856 15.8988 5.31079 15.8988C5.1452 15.8988 4.97755 15.8568 4.82415 15.7682C4.35782 15.499 4.19747 14.9005 4.46669 14.4342L4.65876 14.1016H6.91403L6.15817 15.4107Z" fill="white"/>
<path d="M4.31641 13.3203C3.77793 13.3203 3.33984 12.8822 3.33984 12.3437C3.33984 11.8052 3.77793 11.3672 4.31641 11.3672H6.23742L8.87234 6.80333L8.15824 5.56645C7.88902 5.10012 8.04934 4.50168 8.51566 4.23243C8.98199 3.96321 9.58047 4.1236 9.84969 4.58989L10 4.85024L10.1503 4.58993C10.4196 4.12356 11.0181 3.96325 11.4843 4.23247C11.7102 4.3629 11.8718 4.57348 11.9393 4.82543C12.0068 5.07739 11.9721 5.34059 11.8417 5.56649L8.49269 11.3672H10.6052L11.7328 13.3203H4.31641Z" fill="white"/>
<path d="M15.6836 13.3203H14.8902L15.5333 14.4342C15.8025 14.9005 15.6422 15.4989 15.1759 15.7682C15.0254 15.8551 14.8584 15.8995 14.6891 15.8995C14.6043 15.8995 14.519 15.8883 14.4348 15.8658C14.1828 15.7982 13.9722 15.6366 13.8418 15.4107L10.451 9.53772L11.5786 7.58459L13.7626 11.3672H15.6836C16.2221 11.3672 16.6602 11.8053 16.6602 12.3438C16.6602 12.8823 16.2221 13.3203 15.6836 13.3203Z" fill="#F2F2F2"/>
<path d="M10 11.3672V13.3203H11.7328L10.6052 11.3672H10Z" fill="#F2F2F2"/>
<path d="M11.9393 4.82542C11.8718 4.57347 11.7102 4.36284 11.4843 4.23245C11.018 3.96323 10.4196 4.12351 10.1503 4.58991L10 4.85023V8.75648L11.8417 5.56648C11.9721 5.34058 12.0068 5.07741 11.9393 4.82542Z" fill="#F2F2F2"/>
</g>
<defs>
<clipPath id="clip0_30_5194">
<rect width="20" height="20" fill="white"/>
</clipPath>
</defs>
</svg>
