<svg width="52" height="52" viewBox="0 0 52 52" fill="none" xmlns="http://www.w3.org/2000/svg">
<g clip-path="url(#clip0_19_704)">
<path d="M2.57746 23.4294H43.1406L29.3654 9.6542C29.1168 9.41413 28.9186 9.12695 28.7822 8.80943C28.6458 8.49191 28.574 8.1504 28.571 7.80484C28.568 7.45928 28.6338 7.11658 28.7647 6.79673C28.8955 6.47689 29.0888 6.18631 29.3331 5.94195C29.5775 5.69759 29.8681 5.50435 30.1879 5.37349C30.5078 5.24263 30.8505 5.17678 31.196 5.17979C31.5416 5.18279 31.8831 5.25458 32.2006 5.39098C32.5181 5.52738 32.8053 5.72564 33.0454 5.97421L51.2632 24.192C51.7511 24.68 52.0251 25.3419 52.0251 26.032C52.0251 26.7221 51.7511 27.3839 51.2632 27.872L33.0454 46.0898C32.5545 46.5638 31.8971 46.8261 31.2148 46.8202C30.5324 46.8143 29.8796 46.5406 29.3971 46.058C28.9146 45.5755 28.6409 44.9228 28.6349 44.2404C28.629 43.558 28.8913 42.9006 29.3654 42.4098L43.1406 28.6345H2.57746C1.88722 28.6345 1.22526 28.3603 0.737186 27.8723C0.249115 27.3842 -0.0250778 26.7222 -0.0250778 26.032C-0.0250778 25.3417 0.249115 24.6798 0.737186 24.1917C1.22526 23.7036 1.88722 23.4294 2.57746 23.4294Z" fill="white"/>
</g>
<defs>
<clipPath id="clip0_19_704">
<rect width="52" height="52" fill="white" transform="matrix(-1 0 0 1 52 0)"/>
</clipPath>
</defs>
</svg>
