<svg width="31" height="48" viewBox="0 0 31 48" fill="none" xmlns="http://www.w3.org/2000/svg">
<path fill-rule="evenodd" clip-rule="evenodd" d="M20.3333 3.99988V6.30335C23.2605 6.44075 25.6499 6.91708 26.9232 7.21128C28.9483 7.67928 30.8704 9.25355 30.2051 11.5822C29.0228 15.7203 23.2416 13.1483 20.3333 12.9791V35.0205C23.6519 34.8275 30.3333 31.9126 30.3333 37.3332C30.3333 38.8215 29.3467 40.1294 27.9157 40.5383C25.4663 41.2343 22.8721 41.5771 20.3333 41.6962V43.9999C20.3333 48.2989 13.6667 48.2989 13.6667 43.9999V41.2639C-3.96892 37.8023 -3.96919 10.1969 13.6667 6.73562V3.99988C13.6667 -0.299115 20.3333 -0.299115 20.3333 3.99988ZM13.6667 34.4102C4.64481 31.7529 4.64461 16.2464 13.6667 13.5893V34.4102Z" fill="white"/>
</svg>
