<svg width="412" height="377" viewBox="0 0 412 377" fill="none" xmlns="http://www.w3.org/2000/svg">
<path d="M310.554 144.358C307.546 143.2 304.592 142.068 301.644 140.923C300.803 140.597 299.949 140.28 299.155 139.858C298.798 139.668 298.301 139.178 298.352 138.917C298.426 138.531 298.873 138.096 299.267 137.921C299.785 137.692 300.402 137.636 300.981 137.61C307.027 137.328 312.997 137.997 318.874 139.338C325.208 140.784 331.491 142.46 337.809 143.981C345.405 145.807 353.034 147.502 360.613 149.401C363.852 150.213 367.002 151.383 370.181 152.423C370.775 152.617 371.347 152.924 371.879 153.258C373.175 154.07 373.243 155.201 371.972 156.052C368.742 158.213 365.513 160.385 362.202 162.419C356.073 166.186 349.84 169.785 343.742 173.6C341.142 175.227 338.76 177.205 336.301 179.055C333.887 180.87 332.646 180.708 331.026 178.122C329.898 176.322 328.937 174.417 327.88 172.571C327.344 171.633 326.759 170.723 326.108 169.652C323.744 170.685 321.433 171.686 319.13 172.705C316.232 173.987 313.356 175.318 310.442 176.561C308.48 177.398 307.441 176.872 307.489 174.764C307.598 169.933 307.775 165.088 308.27 160.284C308.81 155.076 309.741 149.908 310.554 144.358ZM334.298 177.227C335.259 176.515 335.932 175.986 336.634 175.501C346.008 169.024 355.552 162.825 365.753 157.693C366.226 157.454 366.399 156.618 366.711 156.061C366.25 155.895 365.787 155.584 365.327 155.587C363.229 155.6 361.13 155.785 359.032 155.753C354.063 155.677 349.095 155.545 344.129 155.374C339.208 155.205 334.29 154.937 329.369 154.76C326.312 154.649 323.251 154.625 319.845 154.555C324.9 162.164 330.792 168.802 334.298 177.227ZM310.529 165.345C310.64 165.361 310.751 165.376 310.862 165.392C312.186 162.516 313.514 159.641 314.831 156.761C315.151 156.064 315.775 155.292 315.665 154.657C315.401 153.118 316.269 152.556 317.382 152.182C318.559 151.786 319.806 151.282 321.005 151.32C330.949 151.647 340.888 152.086 350.83 152.499C353.947 152.628 357.064 152.785 360.182 152.914C360.617 152.932 361.056 152.86 361.493 152.83C360.421 152.17 359.369 151.687 358.271 151.524C350.723 150.399 343.144 149.465 335.615 148.226C329.049 147.145 322.496 146.198 315.821 146.133C313.858 146.115 313.461 146.851 313.167 148.245C312.605 150.899 312.054 153.56 311.647 156.241C311.188 159.262 310.894 162.309 310.529 165.345ZM311.528 172.668C315.907 171.069 320.323 169.456 324.864 167.797C322.401 164.311 320.015 160.937 317.446 157.301C315.407 162.595 313.469 167.627 311.528 172.668ZM303.108 139.554C305.343 140.414 307.589 141.246 309.808 142.145C311.547 142.85 313.207 143.452 315.195 143.552C320.372 143.812 325.53 144.474 330.687 145.056C333.173 145.337 335.639 145.798 338.114 146.178C326.625 143.065 315.156 139.901 303.108 139.554Z" fill="#FFDA44" stroke="#FFDA44" stroke-width="0.5"/>
<path d="M135.697 249.47C136.258 250.097 136.78 250.765 137.389 251.342C140.009 253.826 142.625 256.318 145.31 258.731C146.086 259.427 147.065 259.921 148.008 260.391C148.264 260.518 148.811 260.324 149.089 260.105C152.627 257.313 156.369 254.728 159.59 251.605C162.52 248.764 163.337 244.819 163.392 240.519C162.037 240.909 160.829 241.22 159.655 241.625C159.399 241.713 159.132 242.128 159.092 242.422C158.402 247.497 155.219 250.722 151.108 253.272C150.993 253.343 150.874 253.409 150.757 253.478C148.08 255.06 148.074 255.067 145.718 252.968C144.536 251.915 143.387 250.828 142.212 249.767C141.983 249.56 141.716 249.256 141.455 249.245C139.583 249.165 137.708 249.149 135.835 249.112C135.787 249.232 135.742 249.351 135.697 249.47Z" fill="#FFDA44"/>
<path d="M268.01 235.038C266.765 234.107 265.691 233.303 264.485 232.401C262.962 234.137 261.538 235.873 259.996 237.496C255.989 241.714 251.952 245.903 247.869 250.047C247.198 250.729 247.03 251.211 247.597 251.985C248.199 252.808 248.727 253.685 249.377 254.673C256.291 248.675 262.046 241.876 268.01 235.038Z" fill="#FFDA44"/>
<path d="M288.663 209.63C293.561 204.572 298.298 199.679 303.172 194.645C302.268 193.74 301.206 192.678 299.98 191.451C297.752 193.598 295.518 195.63 293.428 197.799C291.014 200.304 288.711 202.917 286.41 205.527C286.18 205.788 286.102 206.495 286.289 206.757C287.014 207.775 287.874 208.697 288.663 209.63Z" fill="#FFDA44"/>
<path d="M240.976 255.717C235.203 259.717 229.287 263.264 222.6 265.638C222.981 266.954 223.339 268.187 223.745 269.588C231.045 267.248 237.46 263.479 243.694 259.15C242.774 257.989 241.94 256.935 240.976 255.717Z" fill="#FFDA44"/>
<path d="M162.127 234.46C160.074 227.573 150.313 221.556 142.733 222.617C143.328 223.927 143.853 225.197 144.495 226.405C144.631 226.662 145.185 226.747 145.564 226.818C150.828 227.789 154.945 230.469 157.737 235.06C158.22 235.856 158.667 236.014 159.465 235.631C160.156 235.3 160.893 235.065 161.605 234.776C161.766 234.709 161.908 234.595 162.127 234.46Z" fill="#FFDA44"/>
<path d="M284.826 214.357C283.756 213.279 282.779 212.296 281.662 211.171C277.614 216.22 273.627 221.192 269.554 226.272C270.556 227.105 271.418 227.893 272.365 228.562C272.59 228.72 273.269 228.618 273.449 228.399C277.242 223.771 280.991 219.108 284.826 214.357Z" fill="#FFDA44"/>
<path d="M136.794 242.869C135.476 240.335 134.443 237.917 134.563 235.119C134.635 233.424 135.149 231.952 135.96 230.513C136.148 230.178 136.285 229.613 136.13 229.322C135.501 228.136 134.749 227.015 133.99 225.786C131.613 227.441 130.589 229.796 130.157 232.344C129.554 235.901 130.152 239.367 131.569 242.698C131.881 243.433 132.235 243.617 133.003 243.451C134.188 243.195 135.402 243.076 136.794 242.869Z" fill="#FFDA44"/>
<path d="M64.373 211.913C65.9337 215.211 67.2654 218.324 68.8562 221.299C70.3456 224.084 72.1321 226.709 73.7357 229.435C74.271 230.345 74.8494 230.608 75.8139 230.1C76.5246 229.725 77.2997 229.471 78.2288 229.089C77.8982 228.586 77.6589 228.181 77.3814 227.805C73.9853 223.204 71.0229 218.347 68.906 213.022C68.4284 211.82 67.8569 211.258 66.5379 211.651C65.9874 211.813 65.3853 211.799 64.373 211.913Z" fill="#FFDA44"/>
<path d="M95.1771 250.969C100.801 254.691 106.686 257.428 113.205 259.31C113.056 257.916 112.961 256.677 112.765 255.455C112.721 255.178 112.371 254.828 112.087 254.73C107.159 253.009 102.509 250.73 98.0546 247.74C97.1013 248.81 96.1932 249.828 95.1771 250.969Z" fill="#FFDA44"/>
<path d="M171.198 266.78C170.834 267.871 170.409 269.144 169.944 270.536C175.647 272.181 181.46 273.093 187.558 273.669C187.333 272.361 187.166 271.221 186.92 270.097C186.867 269.857 186.556 269.536 186.32 269.492C181.311 268.573 176.296 267.688 171.198 266.78Z" fill="#FFDA44"/>
<path d="M212.975 272.359C212.386 271.187 211.927 270.166 211.355 269.213C211.203 268.961 210.688 268.777 210.359 268.803C205.631 269.174 200.905 269.585 196.18 269.993C196.051 270.005 195.926 270.074 195.706 270.147C195.699 271.338 195.692 272.546 195.683 273.989C201.515 273.932 207.182 273.531 212.975 272.359Z" fill="#FFDA44"/>
<path d="M303.315 188.874C304.427 190.069 305.4 191.115 306.501 192.299C309.947 189.672 313.368 187.113 316.702 184.448C317.061 184.161 317.138 183.16 316.94 182.647C316.772 182.212 315.977 181.705 315.527 181.762C314.624 181.876 313.739 182.295 312.895 182.691C309.496 184.284 306.417 186.381 303.315 188.874Z" fill="#FFDA44"/>
<path d="M67.3881 169.304C66.5605 168.564 65.5629 167.674 64.5678 166.785C62.5457 169.023 60.1583 177.812 60.4261 181.819C60.5388 181.849 60.6602 181.911 60.7821 181.911C64.2285 181.925 64.0659 181.89 64.7719 178.509C65.4043 175.485 66.4484 172.547 67.3881 169.304Z" fill="#FFDA44"/>
<path d="M60.0556 188.842C59.9917 194.271 60.9693 199.418 62.2198 204.434C62.428 204.518 62.4703 204.553 62.5088 204.549C65.6769 204.246 65.6358 204.147 65.107 201.092C64.5078 197.63 64.1304 194.126 63.7612 190.63C63.6706 189.773 63.5294 189.297 62.5905 189.235C61.7897 189.182 60.9971 188.994 60.0556 188.842Z" fill="#FFDA44"/>
<path d="M138.476 261.383C137.355 260.424 136.24 259.456 135.103 258.515C134.906 258.352 134.617 258.225 134.365 258.214C130.493 258.048 126.621 257.903 122.643 257.749C122.81 258.736 122.96 259.839 123.207 260.92C123.269 261.189 123.626 261.559 123.882 261.589C128.692 262.155 133.508 262.284 138.324 261.74C138.374 261.621 138.425 261.503 138.476 261.383Z" fill="#FFDA44"/>
<path d="M79.1058 236.82C82.4689 240.101 85.6042 243.159 88.9297 246.405C89.7635 244.888 90.4266 243.679 91.1205 242.417C88.8196 240.281 86.5813 238.192 84.319 236.13C84.117 235.946 83.7314 235.823 83.4671 235.873C82.1473 236.121 80.8392 236.435 79.1058 236.82Z" fill="#FFDA44"/>
<path d="M68.2815 160.826C69.5301 161.511 70.5696 162.133 71.659 162.645C71.9201 162.768 72.4357 162.637 72.6918 162.439C74.6443 160.926 76.5527 159.354 78.4956 157.828C79.3058 157.191 79.9202 156.476 79.3896 155.419C78.873 154.39 77.822 154.449 77.0113 154.783C73.7379 156.131 70.7774 157.972 68.2815 160.826Z" fill="#FFDA44"/>
<path d="M164.727 269.013C164.92 267.487 165.128 266.25 165.197 265.005C165.215 264.69 164.867 264.201 164.56 264.048C163.07 263.304 161.551 262.611 160.009 261.984C159.601 261.819 158.987 261.778 158.616 261.97C157.321 262.642 156.092 263.439 154.837 264.189C154.839 264.34 154.841 264.492 154.842 264.645C158.102 266.085 161.362 267.526 164.727 269.013Z" fill="#FFDA44"/>
</svg>
