<svg width="21" height="20" viewBox="0 0 21 20" fill="none" xmlns="http://www.w3.org/2000/svg">
<path d="M18.4991 8.50056L15.1121 6.54431L11.6447 10.0118L15.1119 13.479L18.5106 11.5163C19.0406 11.1943 19.3569 10.6318 19.3569 10.0118C19.3569 9.3918 19.0404 8.8293 18.4991 8.50056Z" fill="#FFCE00"/>
<path d="M11.6446 10.0117L2.19987 0.499023C1.87137 0.827522 1.67188 1.27327 1.67188 1.76602V18.2285C1.67188 18.7212 1.87137 19.167 2.19987 19.4957L11.6446 10.0117Z" fill="url(#paint0_linear_30_5186)"/>
<path d="M11.6446 10.0118L15.1121 6.54429L15.1176 6.53879L10.4716 3.8638L4.34713 0.264314C3.79563 -0.0759346 3.12689 -0.0876845 2.56364 0.229064C2.43464 0.311064 2.31714 0.393314 2.19989 0.498814L11.6446 10.0118Z" fill="#00F076"/>
<path d="M2.19989 19.4954C2.31714 19.6009 2.43464 19.6832 2.56364 19.7652C2.84514 19.9177 3.13864 19.9999 3.43189 19.9999C3.74864 19.9999 4.05363 19.9062 4.33538 19.7419L10.4714 16.1597L15.1173 13.4847L15.1118 13.4792L11.6446 10.0117L2.19989 19.4954Z" fill="#F63448"/>
<defs>
<linearGradient id="paint0_linear_30_5186" x1="-2.54911" y1="14.7465" x2="6.94911" y2="5.24801" gradientUnits="userSpaceOnUse">
<stop stop-color="#00E2FF"/>
<stop offset="1" stop-color="#00C5FF"/>
</linearGradient>
</defs>
</svg>
