<svg width="270" height="265" viewBox="0 0 270 265" fill="none" xmlns="http://www.w3.org/2000/svg">
<path d="M169.94 60H79.3051C35.5808 60 0 95.7624 0 139.71C0 179.799 29.5959 213.07 67.9758 218.608V253.581C67.9758 258.185 70.7304 262.344 74.9683 264.101C79.1473 265.854 84.0491 264.914 87.3157 261.632L129.313 219.42H169.94C213.664 219.42 250 183.657 250 139.71C250 95.7624 213.664 60 169.94 60ZM79.3051 151.096C73.0468 151.096 67.9758 145.997 67.9758 139.708C67.9758 133.42 73.0468 128.321 79.3051 128.321C85.5619 128.321 90.6344 133.42 90.6344 139.708C90.6344 145.997 85.5619 151.096 79.3051 151.096ZM124.622 151.096C118.364 151.096 113.293 145.997 113.293 139.708C113.293 133.42 118.364 128.321 124.622 128.321C130.879 128.321 135.952 133.42 135.952 139.708C135.952 145.997 130.879 151.096 124.622 151.096ZM169.94 151.096C163.681 151.096 158.61 145.997 158.61 139.708C158.61 133.42 163.681 128.321 169.94 128.321C176.196 128.321 181.269 133.42 181.269 139.708C181.269 145.997 176.196 151.096 169.94 151.096Z" fill="#F79E1B"/>
</svg>
