<svg width="52" height="52" viewBox="0 0 52 52" fill="none" xmlns="http://www.w3.org/2000/svg">
<g clip-path="url(#clip0_292_1370)">
<path d="M22.7213 12.6709C17.8436 13.8082 13.9171 17.6764 12.718 22.5256C11.5152 27.3904 12.8918 32.349 16.4006 35.7898C17.6417 37.007 18.3828 38.9579 18.3828 41.0086V41.3359C18.3828 42.6863 18.9719 43.9014 19.9062 44.7388V47.4297C19.9062 49.9497 21.9564 52 24.4765 52H27.5234C30.0435 52 32.0937 49.9497 32.0937 47.4297V44.7388C33.028 43.9014 33.6171 42.6864 33.6171 41.3359V41.0026C33.6171 38.9831 34.3979 36.9951 35.7056 35.6847C38.2884 33.0962 39.7109 29.6567 39.7109 26C39.7109 17.2576 31.6094 10.5993 22.7213 12.6709ZM29.0468 47.4297C29.0468 48.2697 28.3634 48.9531 27.5234 48.9531H24.4765C23.6365 48.9531 22.9531 48.2697 22.9531 47.4297V45.9062H29.0468V47.4297ZM33.5487 33.5325C31.6559 35.4294 30.5703 38.152 30.5703 41.0026V41.3359C30.5703 42.1759 29.8869 42.8594 29.0468 42.8594H22.9531C22.1131 42.8594 21.4296 42.1759 21.4296 41.3359V41.0086C21.4296 38.1142 20.3741 35.4191 18.5338 33.6144C15.8028 30.9362 14.7344 27.0644 15.6757 23.257C16.6025 19.5086 19.6396 16.518 23.4132 15.6383C30.3877 14.012 36.664 19.2185 36.664 26C36.664 28.8441 35.5576 31.5192 33.5487 33.5325Z" fill="black"/>
<path d="M14.1504 11.9961L9.84138 7.68718C9.24653 7.09223 8.28189 7.09223 7.68694 7.68718C7.09198 8.28213 7.09198 9.24667 7.68694 9.84163L11.9959 14.1505C12.5908 14.7455 13.5555 14.7455 14.1504 14.1505C14.7453 13.5556 14.7453 12.591 14.1504 11.9961Z" fill="black"/>
<path d="M7.71875 24.4766H1.52344C0.682094 24.4766 0 25.1587 0 26C0 26.8413 0.682094 27.5234 1.52344 27.5234H7.71875C8.56009 27.5234 9.24219 26.8413 9.24219 26C9.24219 25.1587 8.56009 24.4766 7.71875 24.4766Z" fill="black"/>
<path d="M50.4766 24.4766H44.2812C43.4399 24.4766 42.7578 25.1587 42.7578 26C42.7578 26.8413 43.4399 27.5234 44.2812 27.5234H50.4766C51.3179 27.5234 52 26.8413 52 26C52 25.1587 51.3179 24.4766 50.4766 24.4766Z" fill="black"/>
<path d="M44.313 7.68718C43.7182 7.09223 42.7536 7.09223 42.1585 7.68718L37.8495 11.9961C37.2546 12.5909 37.2546 13.5556 37.8495 14.1505C38.4444 14.7455 39.409 14.7455 40.004 14.1505L44.313 9.84163C44.9079 9.24678 44.9079 8.28213 44.313 7.68718Z" fill="black"/>
<path d="M26 0C25.1587 0 24.4766 0.682094 24.4766 1.52344V7.71875C24.4766 8.56009 25.1587 9.24219 26 9.24219C26.8413 9.24219 27.5234 8.56009 27.5234 7.71875V1.52344C27.5234 0.682094 26.8413 0 26 0Z" fill="black"/>
<path d="M26.0001 18.3828C25.3738 18.3828 24.7359 18.4579 24.1051 18.6056C21.4782 19.2188 19.2791 21.3811 18.633 23.9863C18.4305 24.803 18.9283 25.6291 19.7448 25.8317C20.5616 26.0342 21.3877 25.5363 21.5902 24.7198C21.9621 23.2209 23.2809 21.9268 24.7989 21.5725C25.2033 21.4777 25.6075 21.4297 26.0001 21.4297C26.8414 21.4297 27.5235 20.7476 27.5235 19.9062C27.5235 19.0649 26.8414 18.3828 26.0001 18.3828Z" fill="black"/>
</g>
<defs>
<clipPath id="clip0_292_1370">
<rect width="52" height="52" fill="white"/>
</clipPath>
</defs>
</svg>
