<svg width="52" height="52" viewBox="0 0 52 52" fill="none" xmlns="http://www.w3.org/2000/svg">
<path d="M45.7712 6.9246L26.511 0.0880466C26.1802 -0.0293489 25.8192 -0.0293489 25.4884 0.0880466L6.22816 6.9246C5.61836 7.14105 5.21094 7.71804 5.21094 8.36514V28.5423C5.21094 40.3845 14.0636 50.4636 25.8029 51.9873C25.8683 51.9957 25.934 52 25.9997 52C26.0655 52 26.1312 51.9957 26.1965 51.9873C37.9359 50.4636 46.7885 40.3844 46.7885 28.5423V8.36514C46.7885 7.71804 46.3811 7.14105 45.7712 6.9246ZM43.7313 28.5423C43.7313 38.7871 36.1229 47.5163 25.9997 48.9291C15.8766 47.5163 8.26811 38.7871 8.26811 28.5423V9.44453L25.9997 3.15062L43.7313 9.44453V28.5423Z" fill="black"/>
<path d="M20.7852 21.2696C20.7852 22.8669 21.5078 24.2981 22.6426 25.2555C19.0691 26.5806 16.5225 29.9563 16.5225 33.9019V34.4163C16.5225 35.2605 17.2069 35.9449 18.051 35.9449C18.8952 35.9449 19.5796 35.2605 19.5796 34.4163V33.9019C19.5796 30.4892 22.4596 27.7129 25.9997 27.7129C29.5398 27.7129 32.4198 30.4893 32.4198 33.9019V34.4163C32.4198 35.2605 33.1042 35.9449 33.9484 35.9449C34.7925 35.9449 35.4769 35.2605 35.4769 34.4163V33.9019C35.4769 29.9563 32.9304 26.5806 29.3568 25.2555C30.4916 24.2982 31.2142 22.867 31.2142 21.2696C31.2142 18.3942 28.875 16.0549 25.9997 16.0549C23.1244 16.0549 20.7852 18.3942 20.7852 21.2696ZM25.9998 19.1121C27.1894 19.1121 28.1572 20.0799 28.1572 21.2696C28.1572 22.4592 27.1894 23.427 25.9998 23.427C24.8102 23.427 23.8424 22.4592 23.8424 21.2696C23.8424 20.0799 24.8102 19.1121 25.9998 19.1121Z" fill="black"/>
</svg>
