<svg width="52" height="52" viewBox="0 0 52 52" fill="none" xmlns="http://www.w3.org/2000/svg">
<g clip-path="url(#clip0_19_659)">
<path d="M49.4225 23.4294H8.85937L22.6346 9.6542C22.8832 9.41413 23.0814 9.12695 23.2178 8.80943C23.3542 8.49191 23.426 8.1504 23.429 7.80484C23.432 7.45928 23.3662 7.11658 23.2353 6.79673C23.1045 6.47689 22.9112 6.18631 22.6669 5.94195C22.4225 5.69759 22.1319 5.50435 21.8121 5.37349C21.4922 5.24263 21.1495 5.17678 20.804 5.17979C20.4584 5.18279 20.1169 5.25458 19.7994 5.39098C19.4819 5.52738 19.1947 5.72564 18.9546 5.97421L0.736841 24.192C0.248941 24.68 -0.0251465 25.3419 -0.0251465 26.032C-0.0251465 26.7221 0.248941 27.3839 0.736841 27.872L18.9546 46.0898C19.4455 46.5638 20.1029 46.8261 20.7852 46.8202C21.4676 46.8143 22.1204 46.5406 22.6029 46.058C23.0854 45.5755 23.3591 44.9228 23.3651 44.2404C23.371 43.558 23.1087 42.9006 22.6346 42.4098L8.85937 28.6345H49.4225C50.1128 28.6345 50.7747 28.3603 51.2628 27.8723C51.7509 27.3842 52.0251 26.7222 52.0251 26.032C52.0251 25.3417 51.7509 24.6798 51.2628 24.1917C50.7747 23.7036 50.1128 23.4294 49.4225 23.4294Z" fill="white"/>
</g>
<defs>
<clipPath id="clip0_19_659">
<rect width="52" height="52" fill="white"/>
</clipPath>
</defs>
</svg>
