<svg width="121" height="53" viewBox="0 0 121 53" fill="none" xmlns="http://www.w3.org/2000/svg">
<path d="M0 0L13.5204 11.3571L42.3189 11.4923C44.0765 12.1684 46.2398 14.1964 46.2398 17.4413C46.2398 20.9093 43.4005 23.5255 41.6429 23.7959H18.6582L12.574 35.4235H37.9923L46.2398 53H61.9235L51.2423 32.449C55.0281 31.5026 58.0025 25.9592 58.6786 22.7143C58.8588 20.5961 58.8949 15.8189 58.6786 13.1148C58.4622 10.4107 57.9124 8.47279 57.4617 7.84184C55.1633 2.43367 50.0255 0 46.2398 0H0Z" fill="#FEF5FF"/>
<path d="M69.8584 34.1587C69.4683 34.1587 69.1662 34.0517 68.9522 33.8377C68.7508 33.6112 68.6502 33.3028 68.6502 32.9127V21.9249C68.6502 21.5221 68.7571 21.22 68.9711 21.0186C69.1851 20.8047 69.4871 20.6977 69.8773 20.6977H74.4272C75.8873 20.6977 77.0137 21.0501 77.8067 21.7549C78.5996 22.4472 78.9961 23.4226 78.9961 24.6812C78.9961 25.4994 78.8136 26.2042 78.4486 26.7957C78.0961 27.3873 77.5801 27.8404 76.9004 28.1551C76.2208 28.4697 75.3964 28.627 74.4272 28.627L74.5972 28.3438H75.2202C75.7362 28.3438 76.183 28.4697 76.5606 28.7214C76.9508 28.9732 77.2906 29.3696 77.5801 29.9108L78.9961 32.5351C79.1471 32.7994 79.2163 33.0574 79.2037 33.3091C79.1911 33.5608 79.0967 33.7685 78.9205 33.9321C78.7443 34.0832 78.4863 34.1587 78.1465 34.1587C77.8067 34.1587 77.5298 34.0895 77.3158 33.951C77.1018 33.8 76.913 33.5734 76.7494 33.2714L74.8426 29.7598C74.616 29.3319 74.3454 29.0487 74.0308 28.9102C73.7287 28.7592 73.3385 28.6837 72.8603 28.6837H71.0667V32.9127C71.0667 33.3028 70.966 33.6112 70.7646 33.8377C70.5633 34.0517 70.2612 34.1587 69.8584 34.1587ZM71.0667 26.8901H74.0119C74.8804 26.8901 75.5348 26.7139 75.9754 26.3615C76.4285 25.9965 76.655 25.4553 76.655 24.7379C76.655 24.0331 76.4285 23.5044 75.9754 23.152C75.5348 22.787 74.8804 22.6045 74.0119 22.6045H71.0667V26.8901ZM85.4878 34.1965C84.4431 34.1965 83.5432 34.0014 82.788 33.6112C82.0328 33.221 81.4476 32.6672 81.0322 31.9498C80.6295 31.2324 80.4281 30.3828 80.4281 29.4011C80.4281 28.4445 80.6232 27.6075 81.0133 26.8901C81.4161 26.1727 81.9636 25.6126 82.6559 25.2099C83.3607 24.7945 84.1599 24.5868 85.0535 24.5868C85.708 24.5868 86.2933 24.6938 86.8093 24.9078C87.3379 25.1218 87.7848 25.4301 88.1498 25.8329C88.5273 26.2356 88.8105 26.7265 88.9993 27.3055C89.2007 27.8719 89.3014 28.5138 89.3014 29.2312C89.3014 29.4577 89.2196 29.6339 89.056 29.7598C88.9049 29.8731 88.6847 29.9297 88.3952 29.9297H82.3349V28.5704H87.64L87.3379 28.8536C87.3379 28.2746 87.2498 27.7901 87.0736 27.3999C86.91 27.0097 86.6646 26.7139 86.3373 26.5125C86.0227 26.2986 85.6262 26.1916 85.1479 26.1916C84.6193 26.1916 84.1662 26.3175 83.7886 26.5692C83.4236 26.8083 83.1404 27.1544 82.939 27.6075C82.7502 28.0481 82.6559 28.5767 82.6559 29.1934V29.3256C82.6559 30.3576 82.895 31.1317 83.3733 31.6477C83.8641 32.1512 84.5815 32.4029 85.5255 32.4029C85.8528 32.4029 86.2178 32.3652 86.6205 32.2896C87.0359 32.2015 87.426 32.0568 87.791 31.8554C88.0554 31.7044 88.2882 31.6414 88.4896 31.6666C88.691 31.6792 88.8483 31.7484 88.9616 31.8743C89.0874 32.0002 89.1629 32.1575 89.1881 32.3463C89.2133 32.5225 89.1755 32.705 89.0748 32.8938C88.9867 33.0826 88.8294 33.2462 88.6029 33.3846C88.1623 33.6615 87.6526 33.8692 87.0736 34.0077C86.5072 34.1335 85.9786 34.1965 85.4878 34.1965ZM94.5721 34.1587C94.2575 34.1587 93.9806 34.0769 93.7414 33.9133C93.5149 33.7496 93.3261 33.4979 93.1751 33.1581L90.1732 26.1916C90.06 25.9147 90.0159 25.6567 90.0411 25.4175C90.0788 25.1784 90.1921 24.9896 90.3809 24.8512C90.5823 24.7001 90.8529 24.6246 91.1927 24.6246C91.4822 24.6246 91.7151 24.6938 91.8913 24.8323C92.0675 24.9581 92.2248 25.2036 92.3632 25.5686L94.912 31.9309H94.3456L96.9698 25.5497C97.1083 25.1973 97.2656 24.9581 97.4418 24.8323C97.6306 24.6938 97.8823 24.6246 98.197 24.6246C98.4739 24.6246 98.6941 24.7001 98.8578 24.8512C99.0214 24.9896 99.1221 25.1784 99.1598 25.4175C99.1976 25.6441 99.1535 25.8958 99.0277 26.1727L95.9692 33.1581C95.8308 33.4979 95.642 33.7496 95.4028 33.9133C95.1763 34.0769 94.8994 34.1587 94.5721 34.1587ZM105.095 34.1587C104.781 34.1587 104.504 34.0769 104.264 33.9133C104.038 33.7496 103.849 33.4979 103.698 33.1581L100.696 26.1916C100.583 25.9147 100.539 25.6567 100.564 25.4175C100.602 25.1784 100.715 24.9896 100.904 24.8512C101.105 24.7001 101.376 24.6246 101.716 24.6246C102.005 24.6246 102.238 24.6938 102.414 24.8323C102.591 24.9581 102.748 25.2036 102.886 25.5686L105.435 31.9309H104.869L107.493 25.5497C107.631 25.1973 107.789 24.9581 107.965 24.8323C108.154 24.6938 108.405 24.6246 108.72 24.6246C108.997 24.6246 109.217 24.7001 109.381 24.8512C109.544 24.9896 109.645 25.1784 109.683 25.4175C109.721 25.6441 109.677 25.8958 109.551 26.1727L106.492 33.1581C106.354 33.4979 106.165 33.7496 105.926 33.9133C105.699 34.0769 105.422 34.1587 105.095 34.1587ZM115.49 34.1965C114.445 34.1965 113.545 34.0014 112.79 33.6112C112.035 33.221 111.45 32.6672 111.034 31.9498C110.631 31.2324 110.43 30.3828 110.43 29.4011C110.43 28.4445 110.625 27.6075 111.015 26.8901C111.418 26.1727 111.966 25.6126 112.658 25.2099C113.363 24.7945 114.162 24.5868 115.056 24.5868C115.71 24.5868 116.295 24.6938 116.811 24.9078C117.34 25.1218 117.787 25.4301 118.152 25.8329C118.529 26.2356 118.813 26.7265 119.001 27.3055C119.203 27.8719 119.303 28.5138 119.303 29.2312C119.303 29.4577 119.222 29.6339 119.058 29.7598C118.907 29.8731 118.687 29.9297 118.397 29.9297H112.337V28.5704H117.642L117.34 28.8536C117.34 28.2746 117.252 27.7901 117.076 27.3999C116.912 27.0097 116.667 26.7139 116.339 26.5125C116.025 26.2986 115.628 26.1916 115.15 26.1916C114.621 26.1916 114.168 26.3175 113.791 26.5692C113.426 26.8083 113.142 27.1544 112.941 27.6075C112.752 28.0481 112.658 28.5767 112.658 29.1934V29.3256C112.658 30.3576 112.897 31.1317 113.375 31.6477C113.866 32.1512 114.584 32.4029 115.528 32.4029C115.855 32.4029 116.22 32.3652 116.623 32.2896C117.038 32.2015 117.428 32.0568 117.793 31.8554C118.057 31.7044 118.29 31.6414 118.492 31.6666C118.693 31.6792 118.85 31.7484 118.964 31.8743C119.089 32.0002 119.165 32.1575 119.19 32.3463C119.215 32.5225 119.178 32.705 119.077 32.8938C118.989 33.0826 118.831 33.2462 118.605 33.3846C118.164 33.6615 117.655 33.8692 117.076 34.0077C116.509 34.1335 115.981 34.1965 115.49 34.1965Z" fill="#FEF6FF"/>
</svg>
