<svg width="216" height="322" viewBox="0 0 216 322" fill="none" xmlns="http://www.w3.org/2000/svg">
<path fill-rule="evenodd" clip-rule="evenodd" d="M-93.5741 102.731L61.5744 13.1558C67.2149 9.89903 72.0826 7.08854 76.2707 5.03758C80.6795 2.8788 85.2903 1.06694 90.4869 0.385481C102.204 -1.14954 114.059 2.03705 123.441 9.24629C127.602 12.4426 130.692 16.325 133.436 20.4061C136.039 24.2834 138.854 29.159 142.117 34.8098L202.093 138.691C205.355 144.341 208.17 149.217 210.226 153.411C212.388 157.828 214.205 162.445 214.894 167.647C216.446 179.375 213.278 191.237 206.09 200.615C202.901 204.775 199.027 207.862 194.953 210.602C191.083 213.203 186.215 216.013 180.574 219.27L25.4257 308.845C19.7845 312.102 14.9171 314.912 10.73 316.964C6.32011 319.122 1.70916 320.933 -3.48652 321.614C-15.204 323.151 -27.0591 319.963 -36.4414 312.755C-40.6022 309.558 -43.6925 305.676 -46.4348 301.595C-49.0398 297.717 -51.8548 292.841 -55.1168 287.191L-115.093 183.31C-118.355 177.659 -121.17 172.784 -123.225 168.589C-125.389 164.173 -127.206 159.556 -127.894 154.355C-129.445 142.625 -126.278 130.765 -119.089 121.384C-115.902 117.225 -112.027 114.138 -107.953 111.399C-104.083 108.798 -99.2154 105.988 -93.5741 102.731ZM-97.8603 144.329C-96.2743 136.274 -88.4629 131.041 -80.4127 132.64L28.3005 154.231C35.6025 155.682 42.8429 151.502 45.2377 144.453L80.8958 39.5082C83.5357 31.7374 91.9742 27.5888 99.7416 30.2433C107.51 32.8972 111.667 41.3482 109.028 49.119L73.3699 154.064C66.1843 175.212 44.4655 187.751 22.5581 183.4L-86.1555 161.808C-94.2057 160.209 -99.4461 152.383 -97.8603 144.329Z" fill="#04B159"/>
</svg>
