<svg width="152" height="152" viewBox="0 0 152 152" fill="none" xmlns="http://www.w3.org/2000/svg">
<mask id="mask0_51_220" style="mask-type:alpha" maskUnits="userSpaceOnUse" x="0" y="0" width="152" height="152">
<rect width="152" height="152" rx="32" fill="white"/>
</mask>
<g mask="url(#mask0_51_220)">
<rect width="152" height="152" fill="#F63448"/>
<path d="M39.125 76C39.125 96.7106 55.2892 112.875 76 112.875C96.7108 112.875 112.875 96.7106 112.875 76C112.875 55.2894 96.7108 39.125 76 39.125C55.2892 39.125 39.125 55.2894 39.125 76Z" stroke="white" stroke-width="6" stroke-miterlimit="10" stroke-linecap="round" stroke-linejoin="round"/>
</g>
<path fill-rule="evenodd" clip-rule="evenodd" d="M79.3333 55.9999V58.3034C82.2605 58.4408 84.6499 58.9171 85.9232 59.2113C87.9483 59.6793 89.8704 61.2536 89.2051 63.5822C88.0228 67.7203 82.2416 65.1483 79.3333 64.9791V87.0205C82.6519 86.8275 89.3333 83.9126 89.3333 89.3332C89.3333 90.8215 88.3467 92.1294 86.9157 92.5383C84.4663 93.2343 81.8721 93.5771 79.3333 93.6962V95.9999C79.3333 100.299 72.6667 100.299 72.6667 95.9999V93.2639C55.0311 89.8023 55.0308 62.1969 72.6667 58.7356V55.9999C72.6667 51.7009 79.3333 51.7009 79.3333 55.9999ZM72.6667 86.4102C63.6448 83.7529 63.6446 68.2464 72.6667 65.5893V86.4102Z" fill="white"/>
</svg>
