<svg width="152" height="152" viewBox="0 0 152 152" fill="none" xmlns="http://www.w3.org/2000/svg">
<g clip-path="url(#clip0_68_741)">
<mask id="mask0_68_741" style="mask-type:alpha" maskUnits="userSpaceOnUse" x="0" y="0" width="152" height="152">
<rect width="152" height="152" rx="32" fill="#215CFF"/>
</mask>
<g mask="url(#mask0_68_741)">
<rect width="152" height="152" fill="#04B159"/>
</g>
<path fill-rule="evenodd" clip-rule="evenodd" d="M107.957 50.1073C108.172 48.6963 107.57 47.2824 106.406 46.4519C105.242 45.6244 103.709 45.5202 102.444 46.184C92.3205 51.5004 56.9064 70.093 46.0294 75.8024C44.6869 76.5049 43.8951 77.9397 44.0112 79.4489C44.1273 80.9581 45.1275 82.2559 46.5623 82.7471C56.9927 86.3221 88.162 97.0085 95.9253 99.6697C96.988 100.036 98.1608 99.9079 99.1223 99.3274C100.084 98.744 100.736 97.7646 100.905 96.6513L107.957 50.1073ZM49.4884 79.0291L96.6099 95.1838L103.343 50.7562L49.4884 79.0291Z" fill="white"/>
<path fill-rule="evenodd" clip-rule="evenodd" d="M70.4148 88.7987L106.263 51.3902C107.115 50.5002 107.085 49.0863 106.195 48.2349C105.308 47.3806 103.891 47.4104 103.04 48.3004L67.191 85.7089C66.3367 86.5989 66.3664 88.0129 67.2565 88.8672C68.1465 89.7185 69.5604 89.6887 70.4148 88.7987Z" fill="white"/>
<path fill-rule="evenodd" clip-rule="evenodd" d="M71.0339 100.985V87.2538C71.0339 86.0214 70.0338 85.0212 68.8014 85.0212C67.569 85.0212 66.5688 86.0214 66.5688 87.2538V102.486C66.5688 103.98 67.447 105.334 68.8073 105.945C70.1707 106.558 71.7632 106.314 72.8795 105.32C76.9338 101.718 84.3131 95.157 84.3131 95.157C85.2329 94.3384 85.3162 92.9274 84.4976 92.0046C83.679 91.0848 82.2681 91.0015 81.3483 91.8201L71.0339 100.985Z" fill="white"/>
</g>
<defs>
<clipPath id="clip0_68_741">
<rect width="152" height="152" fill="white"/>
</clipPath>
</defs>
</svg>
