<svg width="64" height="64" viewBox="0 0 64 64" fill="none" xmlns="http://www.w3.org/2000/svg">
<path fill-rule="evenodd" clip-rule="evenodd" d="M63.9572 6.10731C64.1715 4.69634 63.5702 3.2824 62.4063 2.4519C61.2424 1.62437 59.7094 1.52018 58.4443 2.18399C48.3205 7.50042 12.9064 26.093 2.02945 31.8024C0.686945 32.5049 -0.104864 33.9397 0.0112286 35.4489C0.127321 36.9581 1.1275 38.2559 2.56228 38.7471C12.9927 42.3221 44.162 53.0085 51.9253 55.6697C52.988 56.0359 54.1608 55.9079 55.1223 55.3274C56.0837 54.744 56.7356 53.7646 56.9053 52.6513L63.9572 6.10731ZM5.4884 35.0291L52.6099 51.1838L59.3433 6.75624L5.4884 35.0291Z" fill="white"/>
<path fill-rule="evenodd" clip-rule="evenodd" d="M26.4148 44.7987L62.2634 7.39024C63.1148 6.5002 63.085 5.08626 62.195 4.23492C61.3079 3.3806 59.891 3.41036 59.0396 4.3004L23.191 41.7089C22.3367 42.5989 22.3664 44.0129 23.2565 44.8672C24.1465 45.7185 25.5604 45.6887 26.4148 44.7987Z" fill="white"/>
<path fill-rule="evenodd" clip-rule="evenodd" d="M27.0339 56.9854V43.2538C27.0339 42.0214 26.0338 41.0212 24.8014 41.0212C23.569 41.0212 22.5688 42.0214 22.5688 43.2538V58.4857C22.5688 59.98 23.447 61.3344 24.8073 61.9446C26.1707 62.5578 27.7632 62.3137 28.8795 61.3195C32.9338 57.7177 40.3131 51.157 40.3131 51.157C41.2329 50.3384 41.3162 48.9274 40.4976 48.0046C39.679 47.0848 38.2681 47.0015 37.3483 47.8201L27.0339 56.9854Z" fill="white"/>
</svg>
