<svg width="200" height="200" viewBox="0 0 200 200" fill="none" xmlns="http://www.w3.org/2000/svg">
<g clip-path="url(#clip0_30_6952)">
<path d="M200 0H0V200H200V0Z" fill="white"/>
<path d="M53.6585 9.7561H48.7805V14.6342H53.6585V9.7561Z" fill="black"/>
<path d="M68.2927 9.7561H63.4146V14.6342H68.2927V9.7561Z" fill="black"/>
<path d="M78.0488 9.7561H73.1707V14.6342H78.0488V9.7561Z" fill="black"/>
<path d="M82.9268 9.7561H78.0488V14.6342H82.9268V9.7561Z" fill="black"/>
<path d="M92.6829 9.7561H87.8049V14.6342H92.6829V9.7561Z" fill="black"/>
<path d="M102.439 9.7561H97.561V14.6342H102.439V9.7561Z" fill="black"/>
<path d="M112.195 9.7561H107.317V14.6342H112.195V9.7561Z" fill="black"/>
<path d="M117.073 9.7561H112.195V14.6342H117.073V9.7561Z" fill="black"/>
<path d="M121.951 9.7561H117.073V14.6342H121.951V9.7561Z" fill="black"/>
<path d="M126.829 9.7561H121.951V14.6342H126.829V9.7561Z" fill="black"/>
<path d="M131.707 9.7561H126.829V14.6342H131.707V9.7561Z" fill="black"/>
<path d="M53.6585 14.6342H48.7805V19.5122H53.6585V14.6342Z" fill="black"/>
<path d="M58.5366 14.6342H53.6585V19.5122H58.5366V14.6342Z" fill="black"/>
<path d="M68.2927 14.6342H63.4146V19.5122H68.2927V14.6342Z" fill="black"/>
<path d="M78.0488 14.6342H73.1707V19.5122H78.0488V14.6342Z" fill="black"/>
<path d="M82.9268 14.6342H78.0488V19.5122H82.9268V14.6342Z" fill="black"/>
<path d="M87.8049 14.6342H82.9268V19.5122H87.8049V14.6342Z" fill="black"/>
<path d="M102.439 14.6342H97.561V19.5122H102.439V14.6342Z" fill="black"/>
<path d="M107.317 14.6342H102.439V19.5122H107.317V14.6342Z" fill="black"/>
<path d="M112.195 14.6342H107.317V19.5122H112.195V14.6342Z" fill="black"/>
<path d="M117.073 14.6342H112.195V19.5122H117.073V14.6342Z" fill="black"/>
<path d="M126.829 14.6342H121.951V19.5122H126.829V14.6342Z" fill="black"/>
<path d="M131.707 14.6342H126.829V19.5122H131.707V14.6342Z" fill="black"/>
<path d="M141.463 14.6342H136.585V19.5122H141.463V14.6342Z" fill="black"/>
<path d="M151.22 14.6342H146.341V19.5122H151.22V14.6342Z" fill="black"/>
<path d="M58.5366 19.5122H53.6585V24.3903H58.5366V19.5122Z" fill="black"/>
<path d="M73.1707 19.5122H68.2927V24.3903H73.1707V19.5122Z" fill="black"/>
<path d="M78.0488 19.5122H73.1707V24.3903H78.0488V19.5122Z" fill="black"/>
<path d="M92.6829 19.5122H87.8049V24.3903H92.6829V19.5122Z" fill="black"/>
<path d="M112.195 19.5122H107.317V24.3903H112.195V19.5122Z" fill="black"/>
<path d="M126.829 19.5122H121.951V24.3903H126.829V19.5122Z" fill="black"/>
<path d="M136.585 19.5122H131.707V24.3903H136.585V19.5122Z" fill="black"/>
<path d="M151.22 19.5122H146.341V24.3903H151.22V19.5122Z" fill="black"/>
<path d="M53.6585 24.3903H48.7805V29.2683H53.6585V24.3903Z" fill="black"/>
<path d="M63.4146 24.3903H58.5366V29.2683H63.4146V24.3903Z" fill="black"/>
<path d="M73.1707 24.3903H68.2927V29.2683H73.1707V24.3903Z" fill="black"/>
<path d="M78.0488 24.3903H73.1707V29.2683H78.0488V24.3903Z" fill="black"/>
<path d="M87.8049 24.3903H82.9268V29.2683H87.8049V24.3903Z" fill="black"/>
<path d="M92.6829 24.3903H87.8049V29.2683H92.6829V24.3903Z" fill="black"/>
<path d="M97.561 24.3903H92.6829V29.2683H97.561V24.3903Z" fill="black"/>
<path d="M107.317 24.3903H102.439V29.2683H107.317V24.3903Z" fill="black"/>
<path d="M112.195 24.3903H107.317V29.2683H112.195V24.3903Z" fill="black"/>
<path d="M136.585 24.3903H131.707V29.2683H136.585V24.3903Z" fill="black"/>
<path d="M141.463 24.3903H136.585V29.2683H141.463V24.3903Z" fill="black"/>
<path d="M151.22 24.3903H146.341V29.2683H151.22V24.3903Z" fill="black"/>
<path d="M58.5366 29.2683H53.6585V34.1464H58.5366V29.2683Z" fill="black"/>
<path d="M68.2927 29.2683H63.4146V34.1464H68.2927V29.2683Z" fill="black"/>
<path d="M73.1707 29.2683H68.2927V34.1464H73.1707V29.2683Z" fill="black"/>
<path d="M78.0488 29.2683H73.1707V34.1464H78.0488V29.2683Z" fill="black"/>
<path d="M87.8049 29.2683H82.9268V34.1464H87.8049V29.2683Z" fill="black"/>
<path d="M97.561 29.2683H92.6829V34.1464H97.561V29.2683Z" fill="black"/>
<path d="M107.317 29.2683H102.439V34.1464H107.317V29.2683Z" fill="black"/>
<path d="M131.707 29.2683H126.829V34.1464H131.707V29.2683Z" fill="black"/>
<path d="M136.585 29.2683H131.707V34.1464H136.585V29.2683Z" fill="black"/>
<path d="M141.463 29.2683H136.585V34.1464H141.463V29.2683Z" fill="black"/>
<path d="M146.341 29.2683H141.463V34.1464H146.341V29.2683Z" fill="black"/>
<path d="M151.22 29.2683H146.341V34.1464H151.22V29.2683Z" fill="black"/>
<path d="M58.5366 34.1464H53.6585V39.0244H58.5366V34.1464Z" fill="black"/>
<path d="M107.317 34.1464H102.439V39.0244H107.317V34.1464Z" fill="black"/>
<path d="M131.707 34.1464H126.829V39.0244H131.707V34.1464Z" fill="black"/>
<path d="M141.463 34.1464H136.585V39.0244H141.463V34.1464Z" fill="black"/>
<path d="M151.22 34.1464H146.341V39.0244H151.22V34.1464Z" fill="black"/>
<path d="M53.6585 39.0244H48.7805V43.9025H53.6585V39.0244Z" fill="black"/>
<path d="M63.4146 39.0244H58.5366V43.9025H63.4146V39.0244Z" fill="black"/>
<path d="M73.1707 39.0244H68.2927V43.9025H73.1707V39.0244Z" fill="black"/>
<path d="M82.9268 39.0244H78.0488V43.9025H82.9268V39.0244Z" fill="black"/>
<path d="M92.6829 39.0244H87.8049V43.9025H92.6829V39.0244Z" fill="black"/>
<path d="M102.439 39.0244H97.561V43.9025H102.439V39.0244Z" fill="black"/>
<path d="M112.195 39.0244H107.317V43.9025H112.195V39.0244Z" fill="black"/>
<path d="M121.951 39.0244H117.073V43.9025H121.951V39.0244Z" fill="black"/>
<path d="M131.707 39.0244H126.829V43.9025H131.707V39.0244Z" fill="black"/>
<path d="M141.463 39.0244H136.585V43.9025H141.463V39.0244Z" fill="black"/>
<path d="M151.22 39.0244H146.341V43.9025H151.22V39.0244Z" fill="black"/>
<path d="M53.6585 43.9025H48.7805V48.7805H53.6585V43.9025Z" fill="black"/>
<path d="M58.5366 43.9025H53.6585V48.7805H58.5366V43.9025Z" fill="black"/>
<path d="M68.2927 43.9025H63.4146V48.7805H68.2927V43.9025Z" fill="black"/>
<path d="M78.0488 43.9025H73.1707V48.7805H78.0488V43.9025Z" fill="black"/>
<path d="M82.9268 43.9025H78.0488V48.7805H82.9268V43.9025Z" fill="black"/>
<path d="M87.8049 43.9025H82.9268V48.7805H87.8049V43.9025Z" fill="black"/>
<path d="M97.561 43.9025H92.6829V48.7805H97.561V43.9025Z" fill="black"/>
<path d="M102.439 43.9025H97.561V48.7805H102.439V43.9025Z" fill="black"/>
<path d="M107.317 43.9025H102.439V48.7805H107.317V43.9025Z" fill="black"/>
<path d="M121.951 43.9025H117.073V48.7805H121.951V43.9025Z" fill="black"/>
<path d="M126.829 43.9025H121.951V48.7805H126.829V43.9025Z" fill="black"/>
<path d="M131.707 43.9025H126.829V48.7805H131.707V43.9025Z" fill="black"/>
<path d="M14.6342 48.7805H9.7561V53.6586H14.6342V48.7805Z" fill="black"/>
<path d="M24.3903 48.7805H19.5122V53.6586H24.3903V48.7805Z" fill="black"/>
<path d="M29.2683 48.7805H24.3903V53.6586H29.2683V48.7805Z" fill="black"/>
<path d="M39.0244 48.7805H34.1464V53.6586H39.0244V48.7805Z" fill="black"/>
<path d="M43.9024 48.7805H39.0244V53.6586H43.9024V48.7805Z" fill="black"/>
<path d="M48.7805 48.7805H43.9024V53.6586H48.7805V48.7805Z" fill="black"/>
<path d="M63.4146 48.7805H58.5366V53.6586H63.4146V48.7805Z" fill="black"/>
<path d="M68.2927 48.7805H63.4146V53.6586H68.2927V48.7805Z" fill="black"/>
<path d="M73.1707 48.7805H68.2927V53.6586H73.1707V48.7805Z" fill="black"/>
<path d="M78.0488 48.7805H73.1707V53.6586H78.0488V48.7805Z" fill="black"/>
<path d="M82.9268 48.7805H78.0488V53.6586H82.9268V48.7805Z" fill="black"/>
<path d="M92.6829 48.7805H87.8049V53.6586H92.6829V48.7805Z" fill="black"/>
<path d="M107.317 48.7805H102.439V53.6586H107.317V48.7805Z" fill="black"/>
<path d="M112.195 48.7805H107.317V53.6586H112.195V48.7805Z" fill="black"/>
<path d="M117.073 48.7805H112.195V53.6586H117.073V48.7805Z" fill="black"/>
<path d="M121.951 48.7805H117.073V53.6586H121.951V48.7805Z" fill="black"/>
<path d="M131.707 48.7805H126.829V53.6586H131.707V48.7805Z" fill="black"/>
<path d="M141.463 48.7805H136.585V53.6586H141.463V48.7805Z" fill="black"/>
<path d="M160.976 48.7805H156.098V53.6586H160.976V48.7805Z" fill="black"/>
<path d="M175.61 48.7805H170.732V53.6586H175.61V48.7805Z" fill="black"/>
<path d="M185.366 48.7805H180.488V53.6586H185.366V48.7805Z" fill="black"/>
<path d="M190.244 48.7805H185.366V53.6586H190.244V48.7805Z" fill="black"/>
<path d="M14.6342 53.6586H9.7561V58.5366H14.6342V53.6586Z" fill="black"/>
<path d="M19.5122 53.6586H14.6342V58.5366H19.5122V53.6586Z" fill="black"/>
<path d="M24.3903 53.6586H19.5122V58.5366H24.3903V53.6586Z" fill="black"/>
<path d="M39.0244 53.6586H34.1464V58.5366H39.0244V53.6586Z" fill="black"/>
<path d="M53.6585 53.6586H48.7805V58.5366H53.6585V53.6586Z" fill="black"/>
<path d="M78.0488 53.6586H73.1707V58.5366H78.0488V53.6586Z" fill="black"/>
<path d="M82.9268 53.6586H78.0488V58.5366H82.9268V53.6586Z" fill="black"/>
<path d="M87.8049 53.6586H82.9268V58.5366H87.8049V53.6586Z" fill="black"/>
<path d="M92.6829 53.6586H87.8049V58.5366H92.6829V53.6586Z" fill="black"/>
<path d="M121.951 53.6586H117.073V58.5366H121.951V53.6586Z" fill="black"/>
<path d="M126.829 53.6586H121.951V58.5366H126.829V53.6586Z" fill="black"/>
<path d="M131.707 53.6586H126.829V58.5366H131.707V53.6586Z" fill="black"/>
<path d="M136.585 53.6586H131.707V58.5366H136.585V53.6586Z" fill="black"/>
<path d="M151.22 53.6586H146.341V58.5366H151.22V53.6586Z" fill="black"/>
<path d="M165.854 53.6586H160.976V58.5366H165.854V53.6586Z" fill="black"/>
<path d="M180.488 53.6586H175.61V58.5366H180.488V53.6586Z" fill="black"/>
<path d="M185.366 53.6586H180.488V58.5366H185.366V53.6586Z" fill="black"/>
<path d="M19.5122 58.5366H14.6342V63.4147H19.5122V58.5366Z" fill="black"/>
<path d="M29.2683 58.5366H24.3903V63.4147H29.2683V58.5366Z" fill="black"/>
<path d="M34.1464 58.5366H29.2683V63.4147H34.1464V58.5366Z" fill="black"/>
<path d="M43.9024 58.5366H39.0244V63.4147H43.9024V58.5366Z" fill="black"/>
<path d="M63.4146 58.5366H58.5366V63.4147H63.4146V58.5366Z" fill="black"/>
<path d="M82.9268 58.5366H78.0488V63.4147H82.9268V58.5366Z" fill="black"/>
<path d="M87.8049 58.5366H82.9268V63.4147H87.8049V58.5366Z" fill="black"/>
<path d="M97.561 58.5366H92.6829V63.4147H97.561V58.5366Z" fill="black"/>
<path d="M102.439 58.5366H97.561V63.4147H102.439V58.5366Z" fill="black"/>
<path d="M117.073 58.5366H112.195V63.4147H117.073V58.5366Z" fill="black"/>
<path d="M121.951 58.5366H117.073V63.4147H121.951V58.5366Z" fill="black"/>
<path d="M126.829 58.5366H121.951V63.4147H126.829V58.5366Z" fill="black"/>
<path d="M131.707 58.5366H126.829V63.4147H131.707V58.5366Z" fill="black"/>
<path d="M151.22 58.5366H146.341V63.4147H151.22V58.5366Z" fill="black"/>
<path d="M156.098 58.5366H151.22V63.4147H156.098V58.5366Z" fill="black"/>
<path d="M175.61 58.5366H170.732V63.4147H175.61V58.5366Z" fill="black"/>
<path d="M14.6342 63.4147H9.7561V68.2927H14.6342V63.4147Z" fill="black"/>
<path d="M24.3903 63.4147H19.5122V68.2927H24.3903V63.4147Z" fill="black"/>
<path d="M34.1464 63.4147H29.2683V68.2927H34.1464V63.4147Z" fill="black"/>
<path d="M39.0244 63.4147H34.1464V68.2927H39.0244V63.4147Z" fill="black"/>
<path d="M48.7805 63.4147H43.9024V68.2927H48.7805V63.4147Z" fill="black"/>
<path d="M58.5366 63.4147H53.6585V68.2927H58.5366V63.4147Z" fill="black"/>
<path d="M63.4146 63.4147H58.5366V68.2927H63.4146V63.4147Z" fill="black"/>
<path d="M78.0488 63.4147H73.1707V68.2927H78.0488V63.4147Z" fill="black"/>
<path d="M87.8049 63.4147H82.9268V68.2927H87.8049V63.4147Z" fill="black"/>
<path d="M102.439 63.4147H97.561V68.2927H102.439V63.4147Z" fill="black"/>
<path d="M107.317 63.4147H102.439V68.2927H107.317V63.4147Z" fill="black"/>
<path d="M126.829 63.4147H121.951V68.2927H126.829V63.4147Z" fill="black"/>
<path d="M136.585 63.4147H131.707V68.2927H136.585V63.4147Z" fill="black"/>
<path d="M156.098 63.4147H151.22V68.2927H156.098V63.4147Z" fill="black"/>
<path d="M175.61 63.4147H170.732V68.2927H175.61V63.4147Z" fill="black"/>
<path d="M180.488 63.4147H175.61V68.2927H180.488V63.4147Z" fill="black"/>
<path d="M14.6342 68.2927H9.7561V73.1708H14.6342V68.2927Z" fill="black"/>
<path d="M19.5122 68.2927H14.6342V73.1708H19.5122V68.2927Z" fill="black"/>
<path d="M29.2683 68.2927H24.3903V73.1708H29.2683V68.2927Z" fill="black"/>
<path d="M34.1464 68.2927H29.2683V73.1708H34.1464V68.2927Z" fill="black"/>
<path d="M39.0244 68.2927H34.1464V73.1708H39.0244V68.2927Z" fill="black"/>
<path d="M43.9024 68.2927H39.0244V73.1708H43.9024V68.2927Z" fill="black"/>
<path d="M48.7805 68.2927H43.9024V73.1708H48.7805V68.2927Z" fill="black"/>
<path d="M53.6585 68.2927H48.7805V73.1708H53.6585V68.2927Z" fill="black"/>
<path d="M58.5366 68.2927H53.6585V73.1708H58.5366V68.2927Z" fill="black"/>
<path d="M63.4146 68.2927H58.5366V73.1708H63.4146V68.2927Z" fill="black"/>
<path d="M78.0488 68.2927H73.1707V73.1708H78.0488V68.2927Z" fill="black"/>
<path d="M82.9268 68.2927H78.0488V73.1708H82.9268V68.2927Z" fill="black"/>
<path d="M97.561 68.2927H92.6829V73.1708H97.561V68.2927Z" fill="black"/>
<path d="M102.439 68.2927H97.561V73.1708H102.439V68.2927Z" fill="black"/>
<path d="M112.195 68.2927H107.317V73.1708H112.195V68.2927Z" fill="black"/>
<path d="M121.951 68.2927H117.073V73.1708H121.951V68.2927Z" fill="black"/>
<path d="M136.585 68.2927H131.707V73.1708H136.585V68.2927Z" fill="black"/>
<path d="M141.463 68.2927H136.585V73.1708H141.463V68.2927Z" fill="black"/>
<path d="M146.341 68.2927H141.463V73.1708H146.341V68.2927Z" fill="black"/>
<path d="M151.22 68.2927H146.341V73.1708H151.22V68.2927Z" fill="black"/>
<path d="M156.098 68.2927H151.22V73.1708H156.098V68.2927Z" fill="black"/>
<path d="M160.976 68.2927H156.098V73.1708H160.976V68.2927Z" fill="black"/>
<path d="M170.732 68.2927H165.854V73.1708H170.732V68.2927Z" fill="black"/>
<path d="M180.488 68.2927H175.61V73.1708H180.488V68.2927Z" fill="black"/>
<path d="M185.366 68.2927H180.488V73.1708H185.366V68.2927Z" fill="black"/>
<path d="M190.244 68.2927H185.366V73.1708H190.244V68.2927Z" fill="black"/>
<path d="M24.3903 73.1708H19.5122V78.0488H24.3903V73.1708Z" fill="black"/>
<path d="M39.0244 73.1708H34.1464V78.0488H39.0244V73.1708Z" fill="black"/>
<path d="M58.5366 73.1708H53.6585V78.0488H58.5366V73.1708Z" fill="black"/>
<path d="M68.2927 73.1708H63.4146V78.0488H68.2927V73.1708Z" fill="black"/>
<path d="M82.9268 73.1708H78.0488V78.0488H82.9268V73.1708Z" fill="black"/>
<path d="M87.8049 73.1708H82.9268V78.0488H87.8049V73.1708Z" fill="black"/>
<path d="M92.6829 73.1708H87.8049V78.0488H92.6829V73.1708Z" fill="black"/>
<path d="M107.317 73.1708H102.439V78.0488H107.317V73.1708Z" fill="black"/>
<path d="M131.707 73.1708H126.829V78.0488H131.707V73.1708Z" fill="black"/>
<path d="M136.585 73.1708H131.707V78.0488H136.585V73.1708Z" fill="black"/>
<path d="M141.463 73.1708H136.585V78.0488H141.463V73.1708Z" fill="black"/>
<path d="M146.341 73.1708H141.463V78.0488H146.341V73.1708Z" fill="black"/>
<path d="M151.22 73.1708H146.341V78.0488H151.22V73.1708Z" fill="black"/>
<path d="M160.976 73.1708H156.098V78.0488H160.976V73.1708Z" fill="black"/>
<path d="M165.854 73.1708H160.976V78.0488H165.854V73.1708Z" fill="black"/>
<path d="M170.732 73.1708H165.854V78.0488H170.732V73.1708Z" fill="black"/>
<path d="M175.61 73.1708H170.732V78.0488H175.61V73.1708Z" fill="black"/>
<path d="M185.366 73.1708H180.488V78.0488H185.366V73.1708Z" fill="black"/>
<path d="M190.244 73.1708H185.366V78.0488H190.244V73.1708Z" fill="black"/>
<path d="M19.5122 78.0488H14.6342V82.9269H19.5122V78.0488Z" fill="black"/>
<path d="M43.9024 78.0488H39.0244V82.9269H43.9024V78.0488Z" fill="black"/>
<path d="M48.7805 78.0488H43.9024V82.9269H48.7805V78.0488Z" fill="black"/>
<path d="M58.5366 78.0488H53.6585V82.9269H58.5366V78.0488Z" fill="black"/>
<path d="M78.0488 78.0488H73.1707V82.9269H78.0488V78.0488Z" fill="black"/>
<path d="M82.9268 78.0488H78.0488V82.9269H82.9268V78.0488Z" fill="black"/>
<path d="M97.561 78.0488H92.6829V82.9269H97.561V78.0488Z" fill="black"/>
<path d="M102.439 78.0488H97.561V82.9269H102.439V78.0488Z" fill="black"/>
<path d="M107.317 78.0488H102.439V82.9269H107.317V78.0488Z" fill="black"/>
<path d="M112.195 78.0488H107.317V82.9269H112.195V78.0488Z" fill="black"/>
<path d="M121.951 78.0488H117.073V82.9269H121.951V78.0488Z" fill="black"/>
<path d="M131.707 78.0488H126.829V82.9269H131.707V78.0488Z" fill="black"/>
<path d="M136.585 78.0488H131.707V82.9269H136.585V78.0488Z" fill="black"/>
<path d="M156.098 78.0488H151.22V82.9269H156.098V78.0488Z" fill="black"/>
<path d="M170.732 78.0488H165.854V82.9269H170.732V78.0488Z" fill="black"/>
<path d="M180.488 78.0488H175.61V82.9269H180.488V78.0488Z" fill="black"/>
<path d="M24.3903 82.9269H19.5122V87.8049H24.3903V82.9269Z" fill="black"/>
<path d="M29.2683 82.9269H24.3903V87.8049H29.2683V82.9269Z" fill="black"/>
<path d="M53.6585 82.9269H48.7805V87.8049H53.6585V82.9269Z" fill="black"/>
<path d="M73.1707 82.9269H68.2927V87.8049H73.1707V82.9269Z" fill="black"/>
<path d="M87.8049 82.9269H82.9268V87.8049H87.8049V82.9269Z" fill="black"/>
<path d="M92.6829 82.9269H87.8049V87.8049H92.6829V82.9269Z" fill="black"/>
<path d="M97.561 82.9269H92.6829V87.8049H97.561V82.9269Z" fill="black"/>
<path d="M102.439 82.9269H97.561V87.8049H102.439V82.9269Z" fill="black"/>
<path d="M112.195 82.9269H107.317V87.8049H112.195V82.9269Z" fill="black"/>
<path d="M117.073 82.9269H112.195V87.8049H117.073V82.9269Z" fill="black"/>
<path d="M126.829 82.9269H121.951V87.8049H126.829V82.9269Z" fill="black"/>
<path d="M141.463 82.9269H136.585V87.8049H141.463V82.9269Z" fill="black"/>
<path d="M146.341 82.9269H141.463V87.8049H146.341V82.9269Z" fill="black"/>
<path d="M156.098 82.9269H151.22V87.8049H156.098V82.9269Z" fill="black"/>
<path d="M160.976 82.9269H156.098V87.8049H160.976V82.9269Z" fill="black"/>
<path d="M165.854 82.9269H160.976V87.8049H165.854V82.9269Z" fill="black"/>
<path d="M170.732 82.9269H165.854V87.8049H170.732V82.9269Z" fill="black"/>
<path d="M190.244 82.9269H185.366V87.8049H190.244V82.9269Z" fill="black"/>
<path d="M19.5122 87.8049H14.6342V92.683H19.5122V87.8049Z" fill="black"/>
<path d="M29.2683 87.8049H24.3903V92.683H29.2683V87.8049Z" fill="black"/>
<path d="M43.9024 87.8049H39.0244V92.683H43.9024V87.8049Z" fill="black"/>
<path d="M68.2927 87.8049H63.4146V92.683H68.2927V87.8049Z" fill="black"/>
<path d="M73.1707 87.8049H68.2927V92.683H73.1707V87.8049Z" fill="black"/>
<path d="M87.8049 87.8049H82.9268V92.683H87.8049V87.8049Z" fill="black"/>
<path d="M92.6829 87.8049H87.8049V92.683H92.6829V87.8049Z" fill="black"/>
<path d="M97.561 87.8049H92.6829V92.683H97.561V87.8049Z" fill="black"/>
<path d="M102.439 87.8049H97.561V92.683H102.439V87.8049Z" fill="black"/>
<path d="M112.195 87.8049H107.317V92.683H112.195V87.8049Z" fill="black"/>
<path d="M117.073 87.8049H112.195V92.683H117.073V87.8049Z" fill="black"/>
<path d="M131.707 87.8049H126.829V92.683H131.707V87.8049Z" fill="black"/>
<path d="M136.585 87.8049H131.707V92.683H136.585V87.8049Z" fill="black"/>
<path d="M156.098 87.8049H151.22V92.683H156.098V87.8049Z" fill="black"/>
<path d="M165.854 87.8049H160.976V92.683H165.854V87.8049Z" fill="black"/>
<path d="M175.61 87.8049H170.732V92.683H175.61V87.8049Z" fill="black"/>
<path d="M180.488 87.8049H175.61V92.683H180.488V87.8049Z" fill="black"/>
<path d="M14.6342 92.683H9.7561V97.561H14.6342V92.683Z" fill="black"/>
<path d="M19.5122 92.683H14.6342V97.561H19.5122V92.683Z" fill="black"/>
<path d="M24.3903 92.683H19.5122V97.561H24.3903V92.683Z" fill="black"/>
<path d="M34.1464 92.683H29.2683V97.561H34.1464V92.683Z" fill="black"/>
<path d="M39.0244 92.683H34.1464V97.561H39.0244V92.683Z" fill="black"/>
<path d="M53.6585 92.683H48.7805V97.561H53.6585V92.683Z" fill="black"/>
<path d="M58.5366 92.683H53.6585V97.561H58.5366V92.683Z" fill="black"/>
<path d="M63.4146 92.683H58.5366V97.561H63.4146V92.683Z" fill="black"/>
<path d="M78.0488 92.683H73.1707V97.561H78.0488V92.683Z" fill="black"/>
<path d="M92.6829 92.683H87.8049V97.561H92.6829V92.683Z" fill="black"/>
<path d="M97.561 92.683H92.6829V97.561H97.561V92.683Z" fill="black"/>
<path d="M107.317 92.683H102.439V97.561H107.317V92.683Z" fill="black"/>
<path d="M112.195 92.683H107.317V97.561H112.195V92.683Z" fill="black"/>
<path d="M126.829 92.683H121.951V97.561H126.829V92.683Z" fill="black"/>
<path d="M136.585 92.683H131.707V97.561H136.585V92.683Z" fill="black"/>
<path d="M146.341 92.683H141.463V97.561H146.341V92.683Z" fill="black"/>
<path d="M160.976 92.683H156.098V97.561H160.976V92.683Z" fill="black"/>
<path d="M180.488 92.683H175.61V97.561H180.488V92.683Z" fill="black"/>
<path d="M185.366 92.683H180.488V97.561H185.366V92.683Z" fill="black"/>
<path d="M190.244 92.683H185.366V97.561H190.244V92.683Z" fill="black"/>
<path d="M24.3903 97.561H19.5122V102.439H24.3903V97.561Z" fill="black"/>
<path d="M29.2683 97.561H24.3903V102.439H29.2683V97.561Z" fill="black"/>
<path d="M39.0244 97.561H34.1464V102.439H39.0244V97.561Z" fill="black"/>
<path d="M43.9024 97.561H39.0244V102.439H43.9024V97.561Z" fill="black"/>
<path d="M48.7805 97.561H43.9024V102.439H48.7805V97.561Z" fill="black"/>
<path d="M82.9268 97.561H78.0488V102.439H82.9268V97.561Z" fill="black"/>
<path d="M87.8049 97.561H82.9268V102.439H87.8049V97.561Z" fill="black"/>
<path d="M92.6829 97.561H87.8049V102.439H92.6829V97.561Z" fill="black"/>
<path d="M107.317 97.561H102.439V102.439H107.317V97.561Z" fill="black"/>
<path d="M117.073 97.561H112.195V102.439H117.073V97.561Z" fill="black"/>
<path d="M141.463 97.561H136.585V102.439H141.463V97.561Z" fill="black"/>
<path d="M146.341 97.561H141.463V102.439H146.341V97.561Z" fill="black"/>
<path d="M160.976 97.561H156.098V102.439H160.976V97.561Z" fill="black"/>
<path d="M165.854 97.561H160.976V102.439H165.854V97.561Z" fill="black"/>
<path d="M175.61 97.561H170.732V102.439H175.61V97.561Z" fill="black"/>
<path d="M180.488 97.561H175.61V102.439H180.488V97.561Z" fill="black"/>
<path d="M185.366 97.561H180.488V102.439H185.366V97.561Z" fill="black"/>
<path d="M190.244 97.561H185.366V102.439H190.244V97.561Z" fill="black"/>
<path d="M39.0244 102.439H34.1464V107.317H39.0244V102.439Z" fill="black"/>
<path d="M48.7805 102.439H43.9024V107.317H48.7805V102.439Z" fill="black"/>
<path d="M58.5366 102.439H53.6585V107.317H58.5366V102.439Z" fill="black"/>
<path d="M63.4146 102.439H58.5366V107.317H63.4146V102.439Z" fill="black"/>
<path d="M68.2927 102.439H63.4146V107.317H68.2927V102.439Z" fill="black"/>
<path d="M97.561 102.439H92.6829V107.317H97.561V102.439Z" fill="black"/>
<path d="M102.439 102.439H97.561V107.317H102.439V102.439Z" fill="black"/>
<path d="M107.317 102.439H102.439V107.317H107.317V102.439Z" fill="black"/>
<path d="M121.951 102.439H117.073V107.317H121.951V102.439Z" fill="black"/>
<path d="M131.707 102.439H126.829V107.317H131.707V102.439Z" fill="black"/>
<path d="M146.341 102.439H141.463V107.317H146.341V102.439Z" fill="black"/>
<path d="M151.22 102.439H146.341V107.317H151.22V102.439Z" fill="black"/>
<path d="M156.098 102.439H151.22V107.317H156.098V102.439Z" fill="black"/>
<path d="M175.61 102.439H170.732V107.317H175.61V102.439Z" fill="black"/>
<path d="M185.366 102.439H180.488V107.317H185.366V102.439Z" fill="black"/>
<path d="M14.6342 107.317H9.7561V112.195H14.6342V107.317Z" fill="black"/>
<path d="M19.5122 107.317H14.6342V112.195H19.5122V107.317Z" fill="black"/>
<path d="M29.2683 107.317H24.3903V112.195H29.2683V107.317Z" fill="black"/>
<path d="M43.9024 107.317H39.0244V112.195H43.9024V107.317Z" fill="black"/>
<path d="M48.7805 107.317H43.9024V112.195H48.7805V107.317Z" fill="black"/>
<path d="M53.6585 107.317H48.7805V112.195H53.6585V107.317Z" fill="black"/>
<path d="M58.5366 107.317H53.6585V112.195H58.5366V107.317Z" fill="black"/>
<path d="M63.4146 107.317H58.5366V112.195H63.4146V107.317Z" fill="black"/>
<path d="M68.2927 107.317H63.4146V112.195H68.2927V107.317Z" fill="black"/>
<path d="M78.0488 107.317H73.1707V112.195H78.0488V107.317Z" fill="black"/>
<path d="M92.6829 107.317H87.8049V112.195H92.6829V107.317Z" fill="black"/>
<path d="M97.561 107.317H92.6829V112.195H97.561V107.317Z" fill="black"/>
<path d="M102.439 107.317H97.561V112.195H102.439V107.317Z" fill="black"/>
<path d="M117.073 107.317H112.195V112.195H117.073V107.317Z" fill="black"/>
<path d="M146.341 107.317H141.463V112.195H146.341V107.317Z" fill="black"/>
<path d="M151.22 107.317H146.341V112.195H151.22V107.317Z" fill="black"/>
<path d="M156.098 107.317H151.22V112.195H156.098V107.317Z" fill="black"/>
<path d="M165.854 107.317H160.976V112.195H165.854V107.317Z" fill="black"/>
<path d="M170.732 107.317H165.854V112.195H170.732V107.317Z" fill="black"/>
<path d="M190.244 107.317H185.366V112.195H190.244V107.317Z" fill="black"/>
<path d="M19.5122 112.195H14.6342V117.073H19.5122V112.195Z" fill="black"/>
<path d="M24.3903 112.195H19.5122V117.073H24.3903V112.195Z" fill="black"/>
<path d="M29.2683 112.195H24.3903V117.073H29.2683V112.195Z" fill="black"/>
<path d="M53.6585 112.195H48.7805V117.073H53.6585V112.195Z" fill="black"/>
<path d="M58.5366 112.195H53.6585V117.073H58.5366V112.195Z" fill="black"/>
<path d="M63.4146 112.195H58.5366V117.073H63.4146V112.195Z" fill="black"/>
<path d="M73.1707 112.195H68.2927V117.073H73.1707V112.195Z" fill="black"/>
<path d="M78.0488 112.195H73.1707V117.073H78.0488V112.195Z" fill="black"/>
<path d="M107.317 112.195H102.439V117.073H107.317V112.195Z" fill="black"/>
<path d="M112.195 112.195H107.317V117.073H112.195V112.195Z" fill="black"/>
<path d="M117.073 112.195H112.195V117.073H117.073V112.195Z" fill="black"/>
<path d="M121.951 112.195H117.073V117.073H121.951V112.195Z" fill="black"/>
<path d="M126.829 112.195H121.951V117.073H126.829V112.195Z" fill="black"/>
<path d="M131.707 112.195H126.829V117.073H131.707V112.195Z" fill="black"/>
<path d="M151.22 112.195H146.341V117.073H151.22V112.195Z" fill="black"/>
<path d="M156.098 112.195H151.22V117.073H156.098V112.195Z" fill="black"/>
<path d="M175.61 112.195H170.732V117.073H175.61V112.195Z" fill="black"/>
<path d="M14.6342 117.073H9.7561V121.951H14.6342V117.073Z" fill="black"/>
<path d="M19.5122 117.073H14.6342V121.951H19.5122V117.073Z" fill="black"/>
<path d="M24.3903 117.073H19.5122V121.951H24.3903V117.073Z" fill="black"/>
<path d="M34.1464 117.073H29.2683V121.951H34.1464V117.073Z" fill="black"/>
<path d="M43.9024 117.073H39.0244V121.951H43.9024V117.073Z" fill="black"/>
<path d="M63.4146 117.073H58.5366V121.951H63.4146V117.073Z" fill="black"/>
<path d="M73.1707 117.073H68.2927V121.951H73.1707V117.073Z" fill="black"/>
<path d="M78.0488 117.073H73.1707V121.951H78.0488V117.073Z" fill="black"/>
<path d="M97.561 117.073H92.6829V121.951H97.561V117.073Z" fill="black"/>
<path d="M112.195 117.073H107.317V121.951H112.195V117.073Z" fill="black"/>
<path d="M126.829 117.073H121.951V121.951H126.829V117.073Z" fill="black"/>
<path d="M131.707 117.073H126.829V121.951H131.707V117.073Z" fill="black"/>
<path d="M160.976 117.073H156.098V121.951H160.976V117.073Z" fill="black"/>
<path d="M165.854 117.073H160.976V121.951H165.854V117.073Z" fill="black"/>
<path d="M14.6342 121.951H9.7561V126.829H14.6342V121.951Z" fill="black"/>
<path d="M19.5122 121.951H14.6342V126.829H19.5122V121.951Z" fill="black"/>
<path d="M39.0244 121.951H34.1464V126.829H39.0244V121.951Z" fill="black"/>
<path d="M53.6585 121.951H48.7805V126.829H53.6585V121.951Z" fill="black"/>
<path d="M58.5366 121.951H53.6585V126.829H58.5366V121.951Z" fill="black"/>
<path d="M63.4146 121.951H58.5366V126.829H63.4146V121.951Z" fill="black"/>
<path d="M68.2927 121.951H63.4146V126.829H68.2927V121.951Z" fill="black"/>
<path d="M73.1707 121.951H68.2927V126.829H73.1707V121.951Z" fill="black"/>
<path d="M102.439 121.951H97.561V126.829H102.439V121.951Z" fill="black"/>
<path d="M121.951 121.951H117.073V126.829H121.951V121.951Z" fill="black"/>
<path d="M131.707 121.951H126.829V126.829H131.707V121.951Z" fill="black"/>
<path d="M136.585 121.951H131.707V126.829H136.585V121.951Z" fill="black"/>
<path d="M146.341 121.951H141.463V126.829H146.341V121.951Z" fill="black"/>
<path d="M156.098 121.951H151.22V126.829H156.098V121.951Z" fill="black"/>
<path d="M170.732 121.951H165.854V126.829H170.732V121.951Z" fill="black"/>
<path d="M175.61 121.951H170.732V126.829H175.61V121.951Z" fill="black"/>
<path d="M180.488 121.951H175.61V126.829H180.488V121.951Z" fill="black"/>
<path d="M190.244 121.951H185.366V126.829H190.244V121.951Z" fill="black"/>
<path d="M24.3903 126.829H19.5122V131.707H24.3903V126.829Z" fill="black"/>
<path d="M34.1464 126.829H29.2683V131.707H34.1464V126.829Z" fill="black"/>
<path d="M43.9024 126.829H39.0244V131.707H43.9024V126.829Z" fill="black"/>
<path d="M48.7805 126.829H43.9024V131.707H48.7805V126.829Z" fill="black"/>
<path d="M63.4146 126.829H58.5366V131.707H63.4146V126.829Z" fill="black"/>
<path d="M68.2927 126.829H63.4146V131.707H68.2927V126.829Z" fill="black"/>
<path d="M73.1707 126.829H68.2927V131.707H73.1707V126.829Z" fill="black"/>
<path d="M87.8049 126.829H82.9268V131.707H87.8049V126.829Z" fill="black"/>
<path d="M102.439 126.829H97.561V131.707H102.439V126.829Z" fill="black"/>
<path d="M112.195 126.829H107.317V131.707H112.195V126.829Z" fill="black"/>
<path d="M126.829 126.829H121.951V131.707H126.829V126.829Z" fill="black"/>
<path d="M136.585 126.829H131.707V131.707H136.585V126.829Z" fill="black"/>
<path d="M156.098 126.829H151.22V131.707H156.098V126.829Z" fill="black"/>
<path d="M160.976 126.829H156.098V131.707H160.976V126.829Z" fill="black"/>
<path d="M170.732 126.829H165.854V131.707H170.732V126.829Z" fill="black"/>
<path d="M180.488 126.829H175.61V131.707H180.488V126.829Z" fill="black"/>
<path d="M185.366 126.829H180.488V131.707H185.366V126.829Z" fill="black"/>
<path d="M24.3903 131.707H19.5122V136.585H24.3903V131.707Z" fill="black"/>
<path d="M29.2683 131.707H24.3903V136.585H29.2683V131.707Z" fill="black"/>
<path d="M34.1464 131.707H29.2683V136.585H34.1464V131.707Z" fill="black"/>
<path d="M48.7805 131.707H43.9024V136.585H48.7805V131.707Z" fill="black"/>
<path d="M53.6585 131.707H48.7805V136.585H53.6585V131.707Z" fill="black"/>
<path d="M63.4146 131.707H58.5366V136.585H63.4146V131.707Z" fill="black"/>
<path d="M68.2927 131.707H63.4146V136.585H68.2927V131.707Z" fill="black"/>
<path d="M92.6829 131.707H87.8049V136.585H92.6829V131.707Z" fill="black"/>
<path d="M97.561 131.707H92.6829V136.585H97.561V131.707Z" fill="black"/>
<path d="M102.439 131.707H97.561V136.585H102.439V131.707Z" fill="black"/>
<path d="M112.195 131.707H107.317V136.585H112.195V131.707Z" fill="black"/>
<path d="M121.951 131.707H117.073V136.585H121.951V131.707Z" fill="black"/>
<path d="M136.585 131.707H131.707V136.585H136.585V131.707Z" fill="black"/>
<path d="M146.341 131.707H141.463V136.585H146.341V131.707Z" fill="black"/>
<path d="M151.22 131.707H146.341V136.585H151.22V131.707Z" fill="black"/>
<path d="M156.098 131.707H151.22V136.585H156.098V131.707Z" fill="black"/>
<path d="M160.976 131.707H156.098V136.585H160.976V131.707Z" fill="black"/>
<path d="M165.854 131.707H160.976V136.585H165.854V131.707Z" fill="black"/>
<path d="M170.732 131.707H165.854V136.585H170.732V131.707Z" fill="black"/>
<path d="M175.61 131.707H170.732V136.585H175.61V131.707Z" fill="black"/>
<path d="M185.366 131.707H180.488V136.585H185.366V131.707Z" fill="black"/>
<path d="M190.244 131.707H185.366V136.585H190.244V131.707Z" fill="black"/>
<path d="M19.5122 136.585H14.6342V141.463H19.5122V136.585Z" fill="black"/>
<path d="M43.9024 136.585H39.0244V141.463H43.9024V136.585Z" fill="black"/>
<path d="M48.7805 136.585H43.9024V141.463H48.7805V136.585Z" fill="black"/>
<path d="M53.6585 136.585H48.7805V141.463H53.6585V136.585Z" fill="black"/>
<path d="M63.4146 136.585H58.5366V141.463H63.4146V136.585Z" fill="black"/>
<path d="M68.2927 136.585H63.4146V141.463H68.2927V136.585Z" fill="black"/>
<path d="M78.0488 136.585H73.1707V141.463H78.0488V136.585Z" fill="black"/>
<path d="M82.9268 136.585H78.0488V141.463H82.9268V136.585Z" fill="black"/>
<path d="M87.8049 136.585H82.9268V141.463H87.8049V136.585Z" fill="black"/>
<path d="M92.6829 136.585H87.8049V141.463H92.6829V136.585Z" fill="black"/>
<path d="M97.561 136.585H92.6829V141.463H97.561V136.585Z" fill="black"/>
<path d="M107.317 136.585H102.439V141.463H107.317V136.585Z" fill="black"/>
<path d="M112.195 136.585H107.317V141.463H112.195V136.585Z" fill="black"/>
<path d="M121.951 136.585H117.073V141.463H121.951V136.585Z" fill="black"/>
<path d="M131.707 136.585H126.829V141.463H131.707V136.585Z" fill="black"/>
<path d="M141.463 136.585H136.585V141.463H141.463V136.585Z" fill="black"/>
<path d="M175.61 136.585H170.732V141.463H175.61V136.585Z" fill="black"/>
<path d="M180.488 136.585H175.61V141.463H180.488V136.585Z" fill="black"/>
<path d="M185.366 136.585H180.488V141.463H185.366V136.585Z" fill="black"/>
<path d="M14.6342 141.463H9.7561V146.341H14.6342V141.463Z" fill="black"/>
<path d="M24.3903 141.463H19.5122V146.341H24.3903V141.463Z" fill="black"/>
<path d="M53.6585 141.463H48.7805V146.341H53.6585V141.463Z" fill="black"/>
<path d="M68.2927 141.463H63.4146V146.341H68.2927V141.463Z" fill="black"/>
<path d="M73.1707 141.463H68.2927V146.341H73.1707V141.463Z" fill="black"/>
<path d="M92.6829 141.463H87.8049V146.341H92.6829V141.463Z" fill="black"/>
<path d="M117.073 141.463H112.195V146.341H117.073V141.463Z" fill="black"/>
<path d="M131.707 141.463H126.829V146.341H131.707V141.463Z" fill="black"/>
<path d="M151.22 141.463H146.341V146.341H151.22V141.463Z" fill="black"/>
<path d="M160.976 141.463H156.098V146.341H160.976V141.463Z" fill="black"/>
<path d="M165.854 141.463H160.976V146.341H165.854V141.463Z" fill="black"/>
<path d="M185.366 141.463H180.488V146.341H185.366V141.463Z" fill="black"/>
<path d="M34.1464 146.341H29.2683V151.219H34.1464V146.341Z" fill="black"/>
<path d="M43.9024 146.341H39.0244V151.219H43.9024V146.341Z" fill="black"/>
<path d="M48.7805 146.341H43.9024V151.219H48.7805V146.341Z" fill="black"/>
<path d="M58.5366 146.341H53.6585V151.219H58.5366V146.341Z" fill="black"/>
<path d="M63.4146 146.341H58.5366V151.219H63.4146V146.341Z" fill="black"/>
<path d="M73.1707 146.341H68.2927V151.219H73.1707V146.341Z" fill="black"/>
<path d="M87.8049 146.341H82.9268V151.219H87.8049V146.341Z" fill="black"/>
<path d="M102.439 146.341H97.561V151.219H102.439V146.341Z" fill="black"/>
<path d="M117.073 146.341H112.195V151.219H117.073V146.341Z" fill="black"/>
<path d="M121.951 146.341H117.073V151.219H121.951V146.341Z" fill="black"/>
<path d="M136.585 146.341H131.707V151.219H136.585V146.341Z" fill="black"/>
<path d="M146.341 146.341H141.463V151.219H146.341V146.341Z" fill="black"/>
<path d="M151.22 146.341H146.341V151.219H151.22V146.341Z" fill="black"/>
<path d="M156.098 146.341H151.22V151.219H156.098V146.341Z" fill="black"/>
<path d="M160.976 146.341H156.098V151.219H160.976V146.341Z" fill="black"/>
<path d="M165.854 146.341H160.976V151.219H165.854V146.341Z" fill="black"/>
<path d="M170.732 146.341H165.854V151.219H170.732V146.341Z" fill="black"/>
<path d="M180.488 146.341H175.61V151.219H180.488V146.341Z" fill="black"/>
<path d="M53.6585 151.219H48.7805V156.098H53.6585V151.219Z" fill="black"/>
<path d="M82.9268 151.219H78.0488V156.098H82.9268V151.219Z" fill="black"/>
<path d="M87.8049 151.219H82.9268V156.098H87.8049V151.219Z" fill="black"/>
<path d="M97.561 151.219H92.6829V156.098H97.561V151.219Z" fill="black"/>
<path d="M112.195 151.219H107.317V156.098H112.195V151.219Z" fill="black"/>
<path d="M126.829 151.219H121.951V156.098H126.829V151.219Z" fill="black"/>
<path d="M131.707 151.219H126.829V156.098H131.707V151.219Z" fill="black"/>
<path d="M136.585 151.219H131.707V156.098H136.585V151.219Z" fill="black"/>
<path d="M151.22 151.219H146.341V156.098H151.22V151.219Z" fill="black"/>
<path d="M170.732 151.219H165.854V156.098H170.732V151.219Z" fill="black"/>
<path d="M180.488 151.219H175.61V156.098H180.488V151.219Z" fill="black"/>
<path d="M190.244 151.219H185.366V156.098H190.244V151.219Z" fill="black"/>
<path d="M53.6585 156.098H48.7805V160.976H53.6585V156.098Z" fill="black"/>
<path d="M58.5366 156.098H53.6585V160.976H58.5366V156.098Z" fill="black"/>
<path d="M63.4146 156.098H58.5366V160.976H63.4146V156.098Z" fill="black"/>
<path d="M87.8049 156.098H82.9268V160.976H87.8049V156.098Z" fill="black"/>
<path d="M97.561 156.098H92.6829V160.976H97.561V156.098Z" fill="black"/>
<path d="M112.195 156.098H107.317V160.976H112.195V156.098Z" fill="black"/>
<path d="M121.951 156.098H117.073V160.976H121.951V156.098Z" fill="black"/>
<path d="M136.585 156.098H131.707V160.976H136.585V156.098Z" fill="black"/>
<path d="M141.463 156.098H136.585V160.976H141.463V156.098Z" fill="black"/>
<path d="M151.22 156.098H146.341V160.976H151.22V156.098Z" fill="black"/>
<path d="M160.976 156.098H156.098V160.976H160.976V156.098Z" fill="black"/>
<path d="M170.732 156.098H165.854V160.976H170.732V156.098Z" fill="black"/>
<path d="M180.488 156.098H175.61V160.976H180.488V156.098Z" fill="black"/>
<path d="M185.366 156.098H180.488V160.976H185.366V156.098Z" fill="black"/>
<path d="M190.244 156.098H185.366V160.976H190.244V156.098Z" fill="black"/>
<path d="M53.6585 160.976H48.7805V165.854H53.6585V160.976Z" fill="black"/>
<path d="M73.1707 160.976H68.2927V165.854H73.1707V160.976Z" fill="black"/>
<path d="M82.9268 160.976H78.0488V165.854H82.9268V160.976Z" fill="black"/>
<path d="M87.8049 160.976H82.9268V165.854H87.8049V160.976Z" fill="black"/>
<path d="M92.6829 160.976H87.8049V165.854H92.6829V160.976Z" fill="black"/>
<path d="M107.317 160.976H102.439V165.854H107.317V160.976Z" fill="black"/>
<path d="M131.707 160.976H126.829V165.854H131.707V160.976Z" fill="black"/>
<path d="M141.463 160.976H136.585V165.854H141.463V160.976Z" fill="black"/>
<path d="M151.22 160.976H146.341V165.854H151.22V160.976Z" fill="black"/>
<path d="M170.732 160.976H165.854V165.854H170.732V160.976Z" fill="black"/>
<path d="M78.0488 165.854H73.1707V170.732H78.0488V165.854Z" fill="black"/>
<path d="M82.9268 165.854H78.0488V170.732H82.9268V165.854Z" fill="black"/>
<path d="M87.8049 165.854H82.9268V170.732H87.8049V165.854Z" fill="black"/>
<path d="M102.439 165.854H97.561V170.732H102.439V165.854Z" fill="black"/>
<path d="M121.951 165.854H117.073V170.732H121.951V165.854Z" fill="black"/>
<path d="M126.829 165.854H121.951V170.732H126.829V165.854Z" fill="black"/>
<path d="M131.707 165.854H126.829V170.732H131.707V165.854Z" fill="black"/>
<path d="M151.22 165.854H146.341V170.732H151.22V165.854Z" fill="black"/>
<path d="M156.098 165.854H151.22V170.732H156.098V165.854Z" fill="black"/>
<path d="M160.976 165.854H156.098V170.732H160.976V165.854Z" fill="black"/>
<path d="M165.854 165.854H160.976V170.732H165.854V165.854Z" fill="black"/>
<path d="M170.732 165.854H165.854V170.732H170.732V165.854Z" fill="black"/>
<path d="M175.61 165.854H170.732V170.732H175.61V165.854Z" fill="black"/>
<path d="M53.6585 170.732H48.7805V175.61H53.6585V170.732Z" fill="black"/>
<path d="M87.8049 170.732H82.9268V175.61H87.8049V170.732Z" fill="black"/>
<path d="M102.439 170.732H97.561V175.61H102.439V170.732Z" fill="black"/>
<path d="M112.195 170.732H107.317V175.61H112.195V170.732Z" fill="black"/>
<path d="M117.073 170.732H112.195V175.61H117.073V170.732Z" fill="black"/>
<path d="M126.829 170.732H121.951V175.61H126.829V170.732Z" fill="black"/>
<path d="M131.707 170.732H126.829V175.61H131.707V170.732Z" fill="black"/>
<path d="M141.463 170.732H136.585V175.61H141.463V170.732Z" fill="black"/>
<path d="M151.22 170.732H146.341V175.61H151.22V170.732Z" fill="black"/>
<path d="M156.098 170.732H151.22V175.61H156.098V170.732Z" fill="black"/>
<path d="M160.976 170.732H156.098V175.61H160.976V170.732Z" fill="black"/>
<path d="M170.732 170.732H165.854V175.61H170.732V170.732Z" fill="black"/>
<path d="M175.61 170.732H170.732V175.61H175.61V170.732Z" fill="black"/>
<path d="M190.244 170.732H185.366V175.61H190.244V170.732Z" fill="black"/>
<path d="M53.6585 175.61H48.7805V180.488H53.6585V175.61Z" fill="black"/>
<path d="M63.4146 175.61H58.5366V180.488H63.4146V175.61Z" fill="black"/>
<path d="M82.9268 175.61H78.0488V180.488H82.9268V175.61Z" fill="black"/>
<path d="M92.6829 175.61H87.8049V180.488H92.6829V175.61Z" fill="black"/>
<path d="M97.561 175.61H92.6829V180.488H97.561V175.61Z" fill="black"/>
<path d="M102.439 175.61H97.561V180.488H102.439V175.61Z" fill="black"/>
<path d="M107.317 175.61H102.439V180.488H107.317V175.61Z" fill="black"/>
<path d="M112.195 175.61H107.317V180.488H112.195V175.61Z" fill="black"/>
<path d="M126.829 175.61H121.951V180.488H126.829V175.61Z" fill="black"/>
<path d="M136.585 175.61H131.707V180.488H136.585V175.61Z" fill="black"/>
<path d="M141.463 175.61H136.585V180.488H141.463V175.61Z" fill="black"/>
<path d="M160.976 175.61H156.098V180.488H160.976V175.61Z" fill="black"/>
<path d="M170.732 175.61H165.854V180.488H170.732V175.61Z" fill="black"/>
<path d="M175.61 175.61H170.732V180.488H175.61V175.61Z" fill="black"/>
<path d="M180.488 175.61H175.61V180.488H180.488V175.61Z" fill="black"/>
<path d="M63.4146 180.488H58.5366V185.366H63.4146V180.488Z" fill="black"/>
<path d="M68.2927 180.488H63.4146V185.366H68.2927V180.488Z" fill="black"/>
<path d="M78.0488 180.488H73.1707V185.366H78.0488V180.488Z" fill="black"/>
<path d="M92.6829 180.488H87.8049V185.366H92.6829V180.488Z" fill="black"/>
<path d="M102.439 180.488H97.561V185.366H102.439V180.488Z" fill="black"/>
<path d="M112.195 180.488H107.317V185.366H112.195V180.488Z" fill="black"/>
<path d="M121.951 180.488H117.073V185.366H121.951V180.488Z" fill="black"/>
<path d="M131.707 180.488H126.829V185.366H131.707V180.488Z" fill="black"/>
<path d="M136.585 180.488H131.707V185.366H136.585V180.488Z" fill="black"/>
<path d="M141.463 180.488H136.585V185.366H141.463V180.488Z" fill="black"/>
<path d="M156.098 180.488H151.22V185.366H156.098V180.488Z" fill="black"/>
<path d="M160.976 180.488H156.098V185.366H160.976V180.488Z" fill="black"/>
<path d="M165.854 180.488H160.976V185.366H165.854V180.488Z" fill="black"/>
<path d="M170.732 180.488H165.854V185.366H170.732V180.488Z" fill="black"/>
<path d="M175.61 180.488H170.732V185.366H175.61V180.488Z" fill="black"/>
<path d="M180.488 180.488H175.61V185.366H180.488V180.488Z" fill="black"/>
<path d="M53.6585 185.366H48.7805V190.244H53.6585V185.366Z" fill="black"/>
<path d="M68.2927 185.366H63.4146V190.244H68.2927V185.366Z" fill="black"/>
<path d="M73.1707 185.366H68.2927V190.244H73.1707V185.366Z" fill="black"/>
<path d="M87.8049 185.366H82.9268V190.244H87.8049V185.366Z" fill="black"/>
<path d="M97.561 185.366H92.6829V190.244H97.561V185.366Z" fill="black"/>
<path d="M107.317 185.366H102.439V190.244H107.317V185.366Z" fill="black"/>
<path d="M131.707 185.366H126.829V190.244H131.707V185.366Z" fill="black"/>
<path d="M136.585 185.366H131.707V190.244H136.585V185.366Z" fill="black"/>
<path d="M141.463 185.366H136.585V190.244H141.463V185.366Z" fill="black"/>
<path d="M156.098 185.366H151.22V190.244H156.098V185.366Z" fill="black"/>
<path d="M160.976 185.366H156.098V190.244H160.976V185.366Z" fill="black"/>
<path d="M170.732 185.366H165.854V190.244H170.732V185.366Z" fill="black"/>
<path d="M175.61 185.366H170.732V190.244H175.61V185.366Z" fill="black"/>
<path d="M180.488 185.366H175.61V190.244H180.488V185.366Z" fill="black"/>
<path d="M185.366 185.366H180.488V190.244H185.366V185.366Z" fill="black"/>
<path d="M190.244 185.366H185.366V190.244H190.244V185.366Z" fill="black"/>
<path d="M38.7805 9.7561H14.8781H9.7561V14.8781V38.7805V43.9024H14.8781H38.7805H43.9024V38.7805V14.8781V9.7561H38.7805ZM38.7805 38.7805H14.8781V14.8781H38.7805V38.7805Z" fill="black"/>
<path d="M185.122 9.7561H161.22H156.098V14.8781V38.7805V43.9024H161.22H185.122H190.244V38.7805V14.8781V9.7561H185.122ZM185.122 38.7805H161.22V14.8781H185.122V38.7805Z" fill="black"/>
<path d="M38.7805 156.098H14.8781H9.7561V161.219V185.122V190.244H14.8781H38.7805H43.9024V185.122V161.219V156.098H38.7805ZM38.7805 185.122H14.8781V161.219H38.7805V185.122Z" fill="black"/>
<path d="M34.1464 19.5122H19.5122V34.1464H34.1464V19.5122Z" fill="black"/>
<path d="M180.488 19.5122H165.854V34.1464H180.488V19.5122Z" fill="black"/>
<path d="M34.1464 165.854H19.5122V180.488H34.1464V165.854Z" fill="black"/>
</g>
<defs>
<clipPath id="clip0_30_6952">
<rect width="200" height="200" fill="white"/>
</clipPath>
</defs>
</svg>
