<svg width="152" height="152" viewBox="0 0 152 152" fill="none" xmlns="http://www.w3.org/2000/svg">
<rect width="152" height="152" rx="32" fill="#004F53"/>
<path d="M36.0414 93.64C34.3614 93.64 32.6547 93.4267 30.9214 93C29.1881 92.6 27.7214 92.0533 26.5214 91.36L27.9614 84.84C29.5081 85.6667 30.9481 86.2133 32.2814 86.48C33.6414 86.72 34.8947 86.84 36.0414 86.84C37.1081 86.84 37.9081 86.6667 38.4414 86.32C39.0014 85.9733 39.2814 85.5067 39.2814 84.92C39.2814 84.3867 38.9747 83.9733 38.3614 83.68C37.7481 83.36 36.9481 83.0667 35.9614 82.8C35.0014 82.5333 33.9747 82.2267 32.8814 81.88C31.7881 81.5067 30.7481 81.0267 29.7614 80.44C28.8014 79.8267 28.0147 79.0267 27.4014 78.04C26.7881 77.0267 26.4814 75.76 26.4814 74.24C26.4814 72.32 26.9481 70.6667 27.8814 69.28C28.8147 67.8667 30.1481 66.7867 31.8814 66.04C33.6147 65.2667 35.6547 64.88 38.0014 64.88C39.5747 64.88 41.1081 65.0933 42.6014 65.52C44.1214 65.92 45.3347 66.4667 46.2414 67.16L44.8814 73.04C43.5214 72.48 42.2947 72.08 41.2014 71.84C40.1347 71.5733 39.1214 71.44 38.1614 71.44C37.0414 71.44 36.1881 71.6 35.6014 71.92C35.0147 72.24 34.7214 72.6667 34.7214 73.2C34.7214 73.7067 35.0281 74.12 35.6414 74.44C36.2547 74.76 37.0414 75.0667 38.0014 75.36C38.9614 75.6533 39.9881 75.9867 41.0814 76.36C42.1747 76.7333 43.2014 77.2267 44.1614 77.84C45.1214 78.4533 45.9081 79.2533 46.5214 80.24C47.1347 81.2267 47.4414 82.4667 47.4414 83.96C47.4414 87.0533 46.4281 89.44 44.4014 91.12C42.4014 92.8 39.6147 93.64 36.0414 93.64ZM62.6158 87.72C63.3891 87.72 64.2024 87.64 65.0558 87.48C65.9358 87.32 66.8291 87.0267 67.7358 86.6L68.6958 91.76C67.7091 92.2667 66.6291 92.6533 65.4558 92.92C64.3091 93.1867 62.9891 93.32 61.4958 93.32C58.8024 93.32 56.5358 92.88 54.6958 92C52.8824 91.12 51.5091 89.9067 50.5758 88.36C49.6424 86.8133 49.1758 85.0267 49.1758 83C49.1758 80.92 49.6691 79.1067 50.6558 77.56C51.6691 76.0133 53.0158 74.8133 54.6958 73.96C56.3758 73.1067 58.2291 72.68 60.2558 72.68C63.2691 72.68 65.5758 73.6267 67.1758 75.52C68.7758 77.3867 69.5758 80.0533 69.5758 83.52L57.6558 85.04C58.5358 86.8267 60.1891 87.72 62.6158 87.72ZM57.0158 81.36L63.2958 80.04C63.1891 79.1867 62.8958 78.56 62.4158 78.16C61.9358 77.7333 61.3358 77.52 60.6158 77.52C59.5491 77.52 58.6958 77.8933 58.0558 78.64C57.4424 79.36 57.0958 80.2667 57.0158 81.36ZM72.3633 93V72.96H80.6833V77.32C81.2966 75.8267 82.2033 74.68 83.4033 73.88C84.6299 73.08 86.0833 72.68 87.7633 72.68C90.3766 72.68 92.4033 73.5867 93.8433 75.4C95.2833 77.1867 96.0033 79.72 96.0033 83V93H87.5633V82.56C87.5633 80.1867 86.6033 79 84.6833 79C83.5366 79 82.6033 79.4267 81.8833 80.28C81.1633 81.1067 80.8033 82.2267 80.8033 83.64V93H72.3633ZM108.625 93.32C106.785 93.32 105.118 92.88 103.625 92C102.132 91.0933 100.945 89.8533 100.065 88.28C99.2118 86.7067 98.7852 84.9067 98.7852 82.88C98.7852 80.8533 99.2118 79.08 100.065 77.56C100.945 76.04 102.132 74.8533 103.625 74C105.118 73.12 106.785 72.68 108.625 72.68C109.932 72.68 111.185 73.04 112.385 73.76C113.612 74.4533 114.518 75.5867 115.105 77.16V66.64L123.545 65.4V93H115.185V89.28C114.545 90.5867 113.692 91.5867 112.625 92.28C111.558 92.9733 110.225 93.32 108.625 93.32ZM111.225 87C112.318 87 113.252 86.6133 114.025 85.84C114.798 85.04 115.185 84.0667 115.185 82.92C115.185 81.7733 114.798 80.84 114.025 80.12C113.252 79.3733 112.318 79 111.225 79C110.078 79 109.118 79.3867 108.345 80.16C107.572 80.9333 107.185 81.88 107.185 83C107.185 84.12 107.572 85.0667 108.345 85.84C109.118 86.6133 110.078 87 111.225 87Z" fill="white"/>
</svg>
