<svg width="52" height="52" viewBox="0 0 52 52" fill="none" xmlns="http://www.w3.org/2000/svg">
<path d="M47.6368 5.90673C41.63 -0.133983 31.7166 0.166303 25.9975 6.4454C20.278 0.166525 10.365 -0.134094 4.35821 5.90684C-1.61504 11.8554 -1.41155 21.6509 4.74296 27.3923C1.5943 30.3995 3.39812 35.8033 7.6838 36.3301C7.42708 39.2647 9.92482 41.9558 12.8793 41.9059C13.0605 45.1365 16.3029 47.449 19.4116 46.5952C20.4315 50.4441 25.3342 51.7592 28.1469 48.9265C29.7443 47.3386 31.0147 46.3373 31.0957 43.9324C33.7353 43.8588 36.0191 41.544 36.0593 38.906C38.7242 38.8648 41.046 36.5423 41.087 33.8781C43.8516 33.8361 46.2487 31.3409 46.12 28.5241L47.6366 27.0076C53.4543 21.19 53.4543 11.7242 47.6368 5.90673ZM7.02977 29.8205L8.45429 28.396C8.82248 28.0278 9.30591 27.8438 9.78957 27.8438C11.4479 27.8328 12.3135 29.8831 11.1246 31.0663L9.70011 32.4908C7.85617 34.1884 5.33197 31.6652 7.02977 29.8205ZM11.0018 36.6864C11.0018 36.182 11.1983 35.7077 11.5549 35.3511L12.9802 33.9259C13.3368 33.5697 13.8106 33.3736 14.3146 33.3736C15.9871 33.3707 16.8348 35.4162 15.6498 36.597L14.3929 37.854C14.0087 38.2894 13.4809 38.584 12.89 38.5746C11.8752 38.5955 10.9808 37.7014 11.0018 36.6864ZM16.7504 42.8817C16.0179 42.1789 16.0179 40.9143 16.7504 40.2115L18.0073 38.9544C18.7401 38.0845 20.0266 37.9712 20.8453 38.7868C21.5815 39.5231 21.5815 40.7208 20.8453 41.4572L19.4207 42.8818C18.6845 43.6183 17.4866 43.6182 16.7504 42.8817ZM27.214 45.1445L25.7895 46.569C25.4328 46.9257 24.9586 47.1221 24.4543 47.1221C23.9499 47.1221 23.4757 46.9257 23.119 46.569C22.3867 45.8661 22.3863 44.6015 23.1191 43.8987L24.5436 42.4742C25.2797 41.7379 26.4777 41.7379 27.2139 42.4741C27.9465 43.177 27.9466 44.4416 27.214 45.1445ZM42.2348 29.998C41.5319 30.7305 40.2673 30.7306 39.5645 29.998L32.1455 22.579L29.788 24.9365L37.207 32.3555C37.9431 33.0918 37.9431 34.2896 37.207 35.0258C36.4707 35.7623 35.2729 35.7621 34.5366 35.0258L27.2435 27.7326L27.1176 27.6068L24.7602 29.9643L24.886 30.0901L32.1791 37.3833C32.9154 38.1196 32.9154 39.3175 32.1791 40.0538C31.4429 40.79 30.245 40.79 29.5087 40.0538L29.5073 40.0552C28.1526 38.7456 26.2595 38.3144 24.5496 38.7616C24.0052 36.5374 21.7693 34.8535 19.5208 34.9025C19.4118 32.5084 17.3878 30.3457 14.996 30.0873C15.3116 25.9798 10.8004 23.1511 7.24037 25.1745C2.28222 20.7456 1.97682 12.9708 6.71593 8.26422C11.4278 3.51934 19.2132 3.83374 23.6403 8.80289L19.5187 12.9244L22.8213 16.227C25.3582 18.7641 29.2674 19.1132 32.1822 17.2746L42.2351 27.3277C42.971 28.0638 42.971 29.2617 42.2348 29.998ZM45.2793 24.6501L44.7713 25.158C44.7134 25.0942 44.6538 25.0315 44.5924 24.9702L32.3132 12.6908L31.1344 13.8695C29.4925 15.5114 26.8208 15.5116 25.1786 13.8695L24.2335 12.9244L28.8937 8.26422C40.2139 -2.15496 55.6963 13.3372 45.2793 24.6501Z" fill="black"/>
</svg>
